<!-- Generator: Adobe Illustrator 23.0.2, SVG Export Plug-In  -->
<svg version="1.1" xmlns="http://www.w3.org/2000/svg" xmlns:xlink="http://www.w3.org/1999/xlink" x="0px" y="0px" width="446.6px"
	 height="136.18px" viewBox="0 0 446.6 136.18" style="enable-background:new 0 0 446.6 136.18;" xml:space="preserve">
<style type="text/css">
	.st0{fill:#FFFFFF;}
</style>
<defs>
</defs>
<g>
	<g>
		<path class="st0" d="M57.44,22.68c0.06,0.95-0.61,2.07-2.03,3.34c-1.42,1.27-2.69,1.95-3.84,2.02
			c-5.46,0.36-11.52,0.92-18.16,1.68c-3.97,22.01-6.39,42.33-7.27,60.95c0.89,0.01,1.65,0.16,2.28,0.47c0.63,0.31,0.96,0.75,1,1.32
			c0.05,0.76-0.47,1.63-1.55,2.59l-3.53,3.1c-0.42,0.47-1.23,0.94-2.44,1.41c-1.21,0.46-2.36,0.73-3.44,0.8
			c-1.97,0.13-2.91-0.61-2.82-2.21c0.84-21.04,3.46-43.28,7.84-66.72l-0.12-0.37c-7.2,1.11-13.91,2.26-20.15,3.43
			c-0.94,0.19-1.72,0.1-2.31-0.28c-0.6-0.37-0.9-1.01-0.89-1.9c0-0.89,0.51-1.66,1.52-2.3c1.01-0.64,2.11-1.16,3.29-1.56
			c5.98-2.18,12.69-3.84,20.15-4.97l0.46-1.66c0.19-0.91,1.03-1.74,2.51-2.51c1.48-0.77,2.95-1.2,4.41-1.3
			c0.95-0.06,1.71,0.08,2.28,0.42c0.56,0.35,0.78,0.87,0.63,1.58l-0.43,2.23l4.47-0.39c4.63-0.31,9.95-0.43,15.95-0.38
			C56.66,21.46,57.38,21.86,57.44,22.68z"/>
		<path class="st0" d="M83.94,50.88c1.42,2.65,2.23,5.5,2.43,8.55c0.29,4.38-0.69,8.91-2.93,13.59c-1.51,3.16-3.81,6.53-6.89,10.12
			c-3.08,3.58-6.56,6.67-10.44,9.25c-3.88,2.59-7.66,4-11.34,4.24c-2.29,0.15-4.48-0.21-6.58-1.1c-4.47-2.06-6.91-6.15-7.31-12.24
			c-0.29-4.38,0.38-9.26,2-14.63c1.62-5.37,3.43-9.94,5.41-13.7c4.83-8.93,10.16-14.7,15.98-17.32c1.61-0.74,3.37-1.18,5.27-1.3
			c2.22-0.15,4.13,0.29,5.73,1.3c1.6,1.01,2.6,2.68,3.01,5.02l0.03,0.38c0.01,0.19-0.03,0.48-0.13,0.87
			C80.6,45.9,82.53,48.23,83.94,50.88z M63.78,46.18c-1.86,1.78-3.69,4.1-5.47,6.96c-2.18,3.65-3.93,7.69-5.23,12.11
			c-0.52,1.76-0.97,4.13-1.35,7.12c-0.38,2.99-0.48,5.76-0.31,8.3c0.17,2.61,0.67,4.66,1.51,6.17c0.83,1.51,2.07,2.21,3.73,2.1
			c1.33-0.09,2.85-0.73,4.56-1.93c4.7-3.18,8.53-7,11.49-11.47c2.96-4.47,4.27-9.21,3.94-14.23C76.2,54.58,71.91,49.54,63.78,46.18z
			"/>
		<path class="st0" d="M128.5,41.82c0.11,1.65,0.07,3.49-0.12,5.51c-0.19,2.02-0.41,3.93-0.67,5.74l-0.42,3.85l-2.05,29.89
			c1.29,0.23,1.88,0.99,1.78,2.27c-0.47,3.54-2.8,5.92-6.99,7.16l-0.95,0.16c-1.08,0.07-2.05-0.09-2.9-0.48
			c-0.86-0.39-1.25-1.07-1.19-2.03c1.39-19.48,2.41-34.09,3.04-43.83c0.05-0.26,0.14-1,0.28-2.22c0.14-1.22,0.18-2.37,0.11-3.45
			c-0.13-2.03-0.74-3.04-1.83-3.04c-0.83-0.07-2.11,1.14-3.83,3.65c-1.72,2.5-2.66,3.89-2.83,4.16c-3.53,4.57-6.76,9.63-9.71,15.18
			c-0.91,9.37-1.62,16.95-2.14,22.72l-0.28,3.08c-0.11,1.22-0.93,2.33-2.46,3.32c-1.53,0.99-3.06,1.54-4.58,1.64
			c-0.95,0.06-1.71-0.09-2.28-0.47c-0.57-0.38-0.82-0.98-0.74-1.82c1.01-9.83,1.79-17.85,2.33-24.07c-0.41-0.36-0.63-0.79-0.66-1.3
			c-0.02-0.32,0.05-0.67,0.22-1.07c0.17-0.33,0.32-0.63,0.47-0.89c0.14-0.26,0.27-0.5,0.38-0.69l2.29-23.3
			c0.12-1.16,0.91-2.2,2.38-3.12c1.47-0.92,2.97-1.44,4.49-1.54c0.95-0.06,1.69,0.08,2.23,0.43c0.53,0.35,0.76,0.91,0.68,1.68
			c-0.18,2.12-0.45,4.85-0.8,8.19l3.72-4.55c2.49-2.84,4.89-5.2,7.19-7.08c2.3-1.87,4.69-2.89,7.16-3.06
			c1.59-0.1,3.01,0.15,4.26,0.77C126.74,34.44,128.21,37.31,128.5,41.82z"/>
		<path class="st0" d="M140.76,32.59c1.43-0.99,2.94-1.53,4.53-1.64c0.89-0.06,1.65,0.1,2.28,0.47c0.63,0.37,0.94,0.98,0.93,1.8
			c1.11,28.38-1.02,56.1-6.38,83.18c-1.06,5.17-2.71,9.52-4.93,13.05c-2.22,3.53-5.48,5.69-9.76,6.48
			c-0.38,0.09-0.95,0.16-1.71,0.21c-4.51,0.3-7.89-1.38-10.14-5.02c-2.25-3.65-3.94-8.24-5.07-13.78c-0.35-1.44,0.2-2.77,1.65-3.98
			c1.45-1.21,3.03-1.87,4.75-1.99c2.1-0.14,3.33,0.67,3.7,2.43c0.69,3.65,1.4,6.7,2.13,9.14c0.73,2.44,1.92,4.02,3.57,4.74
			c0.65,0.21,1.07,0.31,1.26,0.3c1.02-0.07,1.77-0.69,2.27-1.87c0.5-1.18,0.87-2.31,1.12-3.37c0.25-1.07,0.4-1.73,0.44-1.99
			c1.07-4.15,1.93-8.4,2.6-12.75c0.67-4.35,1.35-9.55,2.03-15.59c2.12-18.13,2.98-36.97,2.59-56.52
			C138.62,34.68,139.33,33.58,140.76,32.59z M136.86,26.34c0.46,0.23,0.92,0.36,1.36,0.39c0.19,0.05,0.51,0.06,0.96,0.03
			c1.02-0.07,1.89-0.32,2.63-0.75c1.11-0.52,2.04-1.17,2.79-1.95c0.75-0.78,0.99-1.68,0.73-2.68l-1.11-3.75
			c-0.09-0.38-0.36-0.66-0.82-0.85c-0.46-0.19-0.91-0.31-1.36-0.34c-0.2-0.05-0.55-0.06-1.05-0.03c-0.83,0.05-1.7,0.27-2.64,0.65
			c-2.84,1.46-3.98,3.04-3.42,4.72l1.1,3.66C136.12,25.82,136.4,26.12,136.86,26.34z"/>
		<path class="st0" d="M180.36,29.21c6.1-0.4,11.89,3.33,17.39,11.2c0.21,0.24,0.32,0.55,0.35,0.93c0.05,0.7-0.35,1.46-1.19,2.28
			c-0.65,0.81-1.5,1.47-2.55,1.99c-6.17,3.21-14.77,7.13-25.82,11.75c-0.42,3.28-0.52,6.64-0.29,10.07c0.1,1.59,0.21,2.73,0.32,3.42
			c0.32,2.85,1.05,5.29,2.2,7.32c0.36,0.68,0.87,1.32,1.51,1.91c0.65,0.6,1.13,0.98,1.46,1.15c0.2,0.12,0.52,0.16,0.97,0.13
			c0.44-0.03,0.96-0.19,1.55-0.48c0.59-0.29,1.25-0.69,1.98-1.18c1.77-1.2,3.4-2.55,4.9-4.05c1.49-1.5,3.28-3.44,5.36-5.81
			c0.83-0.95,2.29-1.49,4.39-1.63c1.14-0.08,2.12,0.04,2.94,0.33c0.82,0.3,1.25,0.76,1.29,1.4c0.04,0.57-0.24,1.23-0.83,1.97
			c-3.66,4.52-7.45,8.4-11.38,11.66c-3.93,3.26-7.96,5.02-12.09,5.29c-1.97,0.13-3.84-0.16-5.61-0.87
			c-2.95-1.14-5.15-3.14-6.61-5.97c-1.46-2.84-2.32-6.22-2.58-10.16c-0.19-2.92-0.04-6.38,0.46-10.36l-0.75,0.24l-0.74,0.34
			c-0.93,0.38-1.68,0.59-2.25,0.63c-0.89,0.06-1.6-0.12-2.14-0.53c-0.54-0.41-0.83-0.97-0.88-1.66c-0.05-0.82,0.23-1.66,0.84-2.49
			c0.61-0.84,1.57-1.55,2.87-2.15l4.55-2.12c0.45-1.82,1.16-4.19,2.11-7.12c1.52-4.05,3.52-7.6,6-10.63
			c2.48-3.03,5.5-5.08,9.07-6.15C178.14,29.49,179.21,29.29,180.36,29.21z M170.09,49.12c6.07-2.76,11.56-5.1,16.47-7.02
			c-2.29-2.78-4.55-4.61-6.77-5.49c-0.46-0.16-0.89-0.26-1.31-0.3c-0.42-0.04-0.66-0.05-0.72-0.05c0.07,0.06,0.02,0.13-0.13,0.2
			c-0.16,0.07-0.3,0.12-0.42,0.12C174.13,39.28,171.76,43.46,170.09,49.12z"/>
	</g>
	<g>
		<path class="st0" d="M228.27,63.8c-1.93,0.13-3.75-0.14-5.46-0.79c-1.71-0.66-3.08-1.7-4.11-3.13c-1.03-1.43-1.54-3.17-1.53-5.23
			c0.01-1.54,0.41-3,1.19-4.39c0.79-1.39,1.84-2.58,3.17-3.59c0.53-0.33,1-0.62,1.43-0.86c-0.56-1.28-0.88-2.5-0.96-3.67
			c-0.05-0.73-0.02-1.39,0.09-1.98c0.18-1.22,0.74-2.46,1.7-3.74c0.96-1.27,2.13-2.34,3.52-3.2c1.39-0.86,2.76-1.34,4.11-1.42
			c2.22-0.15,3.92,0.8,5.08,2.85c0.37,0.63,0.58,1.3,0.63,1.99c0.08,1.2-0.24,2.4-0.94,3.6c-0.71,1.2-1.6,2.31-2.66,3.33
			c-0.76,0.67-2.06,1.49-3.9,2.45c0.49,0.77,1.26,1.86,2.3,3.25c1.37,1.85,2.94,3.81,4.73,5.89c1.34-1.88,2.52-4.5,3.54-7.87
			c0.15-0.52,0.58-0.99,1.31-1.4c0.72-0.41,1.45-0.64,2.18-0.69c1.13-0.07,1.72,0.29,1.77,1.09c0,0.07-0.02,0.26-0.07,0.55
			c-0.48,2.16-1.23,4.22-2.25,6.19c-1.02,1.97-2.27,3.72-3.75,5.24l1.89,2.07c0.24,0.24,0.36,0.51,0.38,0.8
			c0.04,0.62-0.35,1.23-1.17,1.83c-0.82,0.6-1.65,0.93-2.49,0.99c-0.66,0.04-1.16-0.11-1.51-0.45l-1.6-1.76
			c-1.31,0.71-2.63,1.24-3.96,1.58C229.96,63.6,229.07,63.75,228.27,63.8z M222.62,54.02c0.11,1.71,0.85,3.12,2.2,4.22
			c1.35,1.1,2.92,1.59,4.71,1.47c0.44-0.03,0.89-0.11,1.36-0.25c0.47-0.07,0.97-0.25,1.5-0.54c-2.3-2.63-4.29-5.13-5.99-7.51
			c-0.04-0.07-0.26-0.37-0.66-0.89c-0.08-0.14-0.43-0.65-1.03-1.52c-0.97,0.87-1.6,1.84-1.89,2.93
			C222.64,52.62,222.58,53.32,222.62,54.02z M228.1,43c2.53-1.59,3.75-3.12,3.65-4.58c-0.02-0.36-0.12-0.71-0.29-1.02
			c-0.42-0.89-0.93-1.31-1.51-1.27c-0.44,0.03-0.86,0.27-1.27,0.72c-0.41,0.45-0.73,0.94-0.95,1.46c-0.22,0.56-0.3,1.25-0.25,2.05
			c0.04,0.66,0.21,1.45,0.49,2.38L228.1,43z"/>
	</g>
	<g>
		<path class="st0" d="M232.27,13.68c0.38-0.24,0.76-0.38,1.15-0.4c0.24-0.02,0.43,0.02,0.57,0.11c0.13,0.09,0.2,0.24,0.2,0.45
			c-0.19,4.23-0.4,8.46-0.62,12.69l-0.31,6.34c-0.01,0.31-0.21,0.59-0.6,0.84c-0.39,0.25-0.78,0.39-1.18,0.42
			c-0.55,0.04-0.81-0.16-0.79-0.58l0.51-9.53c0.22-4.47,0.38-7.64,0.49-9.51C231.69,14.2,231.89,13.92,232.27,13.68z"/>
	</g>
	<g>
		<path class="st0" d="M229.01,62.21c0.38-0.24,0.76-0.38,1.15-0.4c0.24-0.02,0.43,0.02,0.57,0.11s0.2,0.24,0.2,0.45
			c-0.19,4.23-0.4,8.46-0.62,12.69L230,81.39c-0.01,0.31-0.21,0.59-0.6,0.84c-0.39,0.25-0.78,0.39-1.18,0.42
			c-0.55,0.04-0.81-0.16-0.79-0.58l0.51-9.53c0.22-4.47,0.38-7.64,0.49-9.51C228.44,62.72,228.63,62.45,229.01,62.21z"/>
	</g>
	<g>
		<path class="st0" d="M318.24,5.49c0.06,0.95-0.62,2.07-2.03,3.34c-1.42,1.27-2.69,1.95-3.84,2.02
			c-5.46,0.36-11.52,0.92-18.16,1.68c-3.97,22.01-6.39,42.33-7.27,60.95c0.89,0.01,1.65,0.16,2.28,0.47c0.63,0.31,0.96,0.75,1,1.32
			c0.05,0.76-0.47,1.63-1.55,2.59l-3.53,3.1c-0.42,0.47-1.23,0.94-2.44,1.41c-1.21,0.46-2.36,0.73-3.44,0.8
			c-1.97,0.13-2.91-0.61-2.82-2.21c0.84-21.04,3.46-43.28,7.84-66.72l-0.12-0.37c-7.2,1.11-13.91,2.26-20.15,3.43
			c-0.94,0.19-1.72,0.1-2.32-0.28c-0.6-0.38-0.9-1.01-0.89-1.9c0-0.89,0.51-1.66,1.52-2.3c1.01-0.64,2.11-1.16,3.29-1.56
			c5.98-2.18,12.69-3.84,20.15-4.97l0.46-1.66c0.19-0.91,1.03-1.74,2.51-2.51s2.95-1.2,4.41-1.3c0.95-0.06,1.71,0.08,2.28,0.42
			c0.56,0.35,0.77,0.87,0.63,1.58l-0.43,2.23l4.47-0.39c4.64-0.31,9.95-0.43,15.95-0.38C317.45,4.26,318.18,4.66,318.24,5.49z"/>
		<path class="st0" d="M327.79,19.49c6.1-0.4,11.89,3.33,17.39,11.2c0.21,0.24,0.32,0.55,0.35,0.93c0.05,0.7-0.35,1.46-1.19,2.28
			c-0.65,0.81-1.5,1.47-2.55,1.99c-6.17,3.21-14.78,7.13-25.82,11.75c-0.42,3.28-0.52,6.64-0.29,10.07c0.1,1.59,0.21,2.73,0.32,3.42
			c0.32,2.85,1.05,5.29,2.2,7.32c0.36,0.68,0.87,1.32,1.51,1.91c0.65,0.6,1.13,0.98,1.46,1.15c0.2,0.12,0.52,0.16,0.97,0.13
			c0.44-0.03,0.96-0.19,1.55-0.48c0.59-0.29,1.25-0.69,1.98-1.18c1.77-1.2,3.4-2.55,4.9-4.05c1.5-1.5,3.28-3.44,5.36-5.81
			c0.83-0.95,2.29-1.49,4.39-1.63c1.14-0.08,2.12,0.04,2.94,0.33c0.82,0.3,1.25,0.76,1.29,1.4c0.04,0.57-0.24,1.23-0.83,1.97
			c-3.66,4.52-7.45,8.4-11.38,11.66c-3.93,3.26-7.96,5.02-12.09,5.29c-1.97,0.13-3.84-0.16-5.61-0.87
			c-2.95-1.14-5.15-3.14-6.61-5.97c-1.46-2.84-2.32-6.22-2.58-10.16c-0.19-2.92-0.04-6.38,0.46-10.36l-0.75,0.24l-0.74,0.34
			c-0.93,0.38-1.68,0.59-2.25,0.63c-0.89,0.06-1.6-0.12-2.14-0.53c-0.54-0.41-0.83-0.97-0.88-1.66c-0.05-0.82,0.23-1.66,0.84-2.49
			c0.62-0.84,1.57-1.55,2.87-2.15l4.55-2.12c0.45-1.82,1.16-4.19,2.11-7.12c1.52-4.05,3.52-7.6,5.99-10.63
			c2.48-3.03,5.5-5.08,9.07-6.15C325.57,19.77,326.65,19.57,327.79,19.49z M317.53,39.4c6.07-2.76,11.56-5.1,16.47-7.02
			c-2.29-2.78-4.55-4.61-6.77-5.49c-0.46-0.16-0.9-0.26-1.31-0.3c-0.42-0.04-0.66-0.05-0.72-0.05c0.07,0.06,0.02,0.13-0.13,0.2
			c-0.16,0.07-0.3,0.12-0.42,0.12C321.57,29.57,319.19,33.74,317.53,39.4z"/>
		<path class="st0" d="M377.29,14.12c1.65-0.11,3.01,0.23,4.09,1.02c1.07,0.79,1.67,2.14,1.8,4.04c0.12,1.84-0.03,3.86-0.46,6.06
			c-0.43,2.2-1.06,4.79-1.88,7.78l-1.07,4.09c-0.3,1.23-1.22,2.31-2.75,3.24c-1.53,0.93-3.03,1.44-4.49,1.54
			c-0.95,0.06-1.68-0.1-2.18-0.48c-0.5-0.38-0.66-0.99-0.46-1.84c0.91-3.63,1.79-7.64,2.65-12.04c0.12-1.98,0.23-3.3,0.31-3.94
			l-0.36,0.41c-4.61,4.51-8.74,10.08-12.39,16.7c-1.18,10.22-1.65,20.42-1.42,30.61c0.02,1.21-0.72,2.33-2.22,3.35
			c-1.5,1.02-3.07,1.59-4.72,1.7c-0.95,0.06-1.76-0.11-2.43-0.51c-0.66-0.4-1-1.05-0.99-1.94c-0.1-9.18,0.3-18.13,1.19-26.87
			c-0.67-0.4-1.02-0.89-1.05-1.46c-0.03-0.38,0.07-0.8,0.3-1.26l1.27-2.48c0.92-7.39,2.15-14.84,3.69-22.34
			c0.24-1.16,1.18-2.23,2.8-3.2c1.63-0.97,3.2-1.5,4.73-1.6c0.95-0.06,1.69,0.08,2.23,0.43c0.53,0.35,0.7,0.91,0.49,1.69
			c-0.78,3.62-1.26,6.02-1.44,7.18c3.56-4.06,6.82-6.86,9.78-8.39C374.11,14.72,375.77,14.22,377.29,14.12z"/>
		<path class="st0" d="M389.26,16.2c1.43-0.99,2.94-1.53,4.53-1.64c0.89-0.06,1.65,0.1,2.28,0.47c0.63,0.37,0.94,0.98,0.93,1.8
			c1.11,28.38-1.02,56.1-6.38,83.18c-1.06,5.17-2.71,9.52-4.93,13.05c-2.22,3.53-5.48,5.69-9.76,6.48
			c-0.38,0.09-0.95,0.16-1.71,0.21c-4.51,0.3-7.89-1.38-10.14-5.02c-2.25-3.65-3.94-8.24-5.07-13.78c-0.35-1.45,0.2-2.77,1.65-3.98
			c1.45-1.21,3.03-1.87,4.75-1.99c2.1-0.14,3.33,0.67,3.7,2.43c0.69,3.65,1.4,6.7,2.13,9.14c0.74,2.44,1.92,4.02,3.56,4.74
			c0.65,0.21,1.07,0.31,1.26,0.3c1.02-0.07,1.77-0.69,2.27-1.87c0.5-1.18,0.87-2.31,1.12-3.37c0.25-1.07,0.4-1.73,0.44-1.99
			c1.07-4.15,1.93-8.4,2.6-12.75c0.67-4.35,1.35-9.55,2.03-15.59c2.12-18.13,2.98-36.97,2.59-56.52
			C387.12,18.29,387.83,17.19,389.26,16.2z M385.36,9.96c0.46,0.23,0.92,0.36,1.37,0.39c0.19,0.05,0.51,0.06,0.96,0.03
			c1.02-0.07,1.89-0.32,2.63-0.75c1.11-0.52,2.04-1.17,2.79-1.95c0.75-0.78,0.99-1.68,0.73-2.68l-1.11-3.75
			c-0.09-0.38-0.36-0.66-0.82-0.85c-0.46-0.19-0.91-0.31-1.36-0.34c-0.2-0.05-0.55-0.06-1.05-0.03c-0.83,0.05-1.7,0.27-2.64,0.65
			c-2.84,1.46-3.98,3.04-3.42,4.72l1.1,3.66C384.62,9.43,384.9,9.73,385.36,9.96z"/>
		<path class="st0" d="M428.86,12.83c6.1-0.4,11.89,3.33,17.39,11.2c0.21,0.24,0.32,0.55,0.35,0.93c0.05,0.7-0.35,1.46-1.19,2.28
			c-0.65,0.81-1.5,1.47-2.55,1.99c-6.17,3.21-14.77,7.13-25.82,11.75c-0.42,3.28-0.52,6.64-0.29,10.07c0.1,1.59,0.21,2.73,0.32,3.42
			c0.32,2.85,1.05,5.29,2.21,7.32c0.36,0.68,0.87,1.32,1.51,1.91c0.65,0.6,1.13,0.98,1.46,1.15c0.2,0.12,0.52,0.16,0.97,0.13
			c0.44-0.03,0.96-0.19,1.55-0.48c0.59-0.29,1.25-0.69,1.98-1.18c1.77-1.2,3.4-2.55,4.9-4.05c1.49-1.5,3.28-3.44,5.36-5.81
			c0.83-0.95,2.29-1.49,4.39-1.63c1.14-0.08,2.12,0.04,2.94,0.33c0.82,0.3,1.25,0.76,1.29,1.4c0.04,0.57-0.24,1.23-0.83,1.97
			c-3.66,4.52-7.45,8.4-11.38,11.66c-3.93,3.26-7.96,5.02-12.09,5.29c-1.97,0.13-3.84-0.16-5.61-0.87
			c-2.95-1.15-5.15-3.14-6.61-5.97c-1.46-2.84-2.32-6.22-2.58-10.16c-0.19-2.92-0.04-6.38,0.46-10.36l-0.75,0.24l-0.74,0.34
			c-0.93,0.38-1.68,0.59-2.25,0.63c-0.89,0.06-1.6-0.12-2.14-0.53c-0.54-0.41-0.83-0.97-0.88-1.66c-0.05-0.82,0.23-1.66,0.84-2.49
			c0.61-0.84,1.57-1.55,2.87-2.15l4.55-2.12c0.45-1.82,1.16-4.19,2.11-7.12c1.52-4.05,3.52-7.6,6-10.63
			c2.48-3.03,5.5-5.08,9.07-6.15C426.64,13.1,427.72,12.9,428.86,12.83z M418.59,32.73c6.07-2.76,11.56-5.1,16.47-7.02
			c-2.29-2.78-4.55-4.61-6.77-5.48c-0.46-0.16-0.89-0.26-1.31-0.3c-0.42-0.04-0.66-0.05-0.72-0.05c0.07,0.06,0.02,0.13-0.13,0.2
			c-0.15,0.07-0.3,0.12-0.42,0.12C422.63,22.9,420.26,27.07,418.59,32.73z"/>
	</g>
</g>
</svg>
