<svg version="1.1" xmlns="http://www.w3.org/2000/svg" xmlns:xlink="http://www.w3.org/1999/xlink" x="0px" y="0px"
	 width="241.97px" height="240.59px" viewBox="0 0 241.97 240.59" style="enable-background:new 0 0 241.97 240.59;"
	 xml:space="preserve">
<style type="text/css">
	.st0{fill:#042745;}
	.st1{fill:#F7F7CB;}
	.st2{fill:#FFFFFF;}
	.st3{fill:none;stroke:#FFFFFF;stroke-miterlimit:10;}
</style>
<g>
	<polygon class="st0" points="120.98,240.59 0,120.3 120.98,0 241.97,120.3 	"/>
</g>
<g>
	<path class="st1" d="M120.98,18.47L222.81,120.3L120.98,222.12L19.16,120.3L120.98,18.47 M120.98,17.06L17.75,120.3l103.24,103.24
		L224.22,120.3L120.98,17.06L120.98,17.06z"/>
</g>
<g>
	<path class="st1" d="M120.98,10.4l109.9,109.9l-109.9,109.9L11.09,120.3L120.98,10.4 M120.98,8.98L9.67,120.3l111.31,111.31
		L232.3,120.3L120.98,8.98L120.98,8.98z"/>
</g>
<path class="st2" d="M71.85,97.46h33.75l-3.64,11.8h-1.25c0.41-1.73,0.62-3.27,0.62-4.62c0-1.59-0.49-2.8-1.47-3.6
	c-0.74-0.61-2.65-0.92-5.73-0.92h-3.51l-8.78,30.6c-1.11,3.85-1.67,6.21-1.67,7.11c0,0.83,0.35,1.51,1.05,2.05
	c0.7,0.54,1.93,0.8,3.7,0.8h1.51l-0.39,1.21H66.71l0.36-1.21h0.85c1.7,0,3.01-0.27,3.93-0.82c0.63-0.37,1.21-1.04,1.72-2.02
	c0.51-0.97,1.23-3.03,2.15-6.18l9.21-31.55h-2.65c-2.56,0-4.61,0.33-6.18,0.98s-2.82,1.61-3.78,2.85c-0.96,1.24-1.75,3.01-2.36,5.31
	h-1.21L71.85,97.46z"/>
<path class="st2" d="M141.51,97.46h33.75l-3.64,11.8h-1.25c0.42-1.73,0.62-3.27,0.62-4.62c0-1.59-0.49-2.8-1.47-3.6
	c-0.74-0.61-2.65-0.92-5.73-0.92h-3.51l-8.78,30.6c-1.11,3.85-1.67,6.21-1.67,7.11c0,0.83,0.35,1.51,1.05,2.05s1.93,0.8,3.7,0.8
	h1.51l-0.39,1.21h-19.33l0.36-1.21h0.85c1.7,0,3.01-0.27,3.93-0.82c0.63-0.37,1.21-1.04,1.72-2.02c0.51-0.97,1.23-3.03,2.15-6.18
	l9.21-31.55h-2.65c-2.56,0-4.62,0.33-6.18,0.98s-2.82,1.61-3.78,2.85c-0.96,1.24-1.75,3.01-2.36,5.31h-1.21L141.51,97.46z"/>
<line class="st3" x1="120.98" y1="83.8" x2="120.98" y2="164.8"/>
</svg>
