<?xml version="1.0" encoding="UTF-8" standalone="no"?><!DOCTYPE svg PUBLIC "-//W3C//DTD SVG 1.1//EN" "http://www.w3.org/Graphics/SVG/1.1/DTD/svg11.dtd"><svg width="100%" height="100%" viewBox="0 0 242 241" version="1.1" xmlns="http://www.w3.org/2000/svg" xmlns:xlink="http://www.w3.org/1999/xlink" xml:space="preserve" xmlns:serif="http://www.serif.com/" style="fill-rule:evenodd;clip-rule:evenodd;stroke-miterlimit:10;"><path d="M120.98,240.59l-120.98,-120.29l120.98,-120.3l120.99,120.3l-120.99,120.29Z" style="fill:#042745;fill-rule:nonzero;"/><path d="M120.98,18.47l101.83,101.83l-101.83,101.82l-101.82,-101.82l101.82,-101.83m0,-1.41l-103.23,103.24l103.24,103.24l103.23,-103.24l-103.24,-103.24Z" style="fill:#b3b3b3;fill-rule:nonzero;"/><path d="M120.98,10.4l109.9,109.9l-109.9,109.9l-109.89,-109.9l109.89,-109.9m0,-1.42l-111.31,111.32l111.31,111.31l111.32,-111.31l-111.32,-111.32Z" style="fill:#b3b3b3;fill-rule:nonzero;"/><path d="M71.85,97.46l33.75,0l-3.64,11.8l-1.25,0c0.41,-1.73 0.62,-3.27 0.62,-4.62c0,-1.59 -0.49,-2.8 -1.47,-3.6c-0.74,-0.61 -2.65,-0.92 -5.73,-0.92l-3.51,0l-8.78,30.6c-1.11,3.85 -1.67,6.21 -1.67,7.11c0,0.83 0.35,1.51 1.05,2.05c0.7,0.54 1.93,0.8 3.7,0.8l1.51,0l-0.39,1.21l-19.33,0l0.36,-1.21l0.85,0c1.7,0 3.01,-0.27 3.93,-0.82c0.63,-0.37 1.21,-1.04 1.72,-2.02c0.51,-0.97 1.23,-3.03 2.15,-6.18l9.21,-31.55l-2.65,0c-2.56,0 -4.61,0.33 -6.18,0.98c-1.57,0.65 -2.82,1.61 -3.78,2.85c-0.96,1.24 -1.75,3.01 -2.36,5.31l-1.21,0l3.1,-11.79Z" style="fill:#b3b3b3;fill-rule:nonzero;"/><path d="M141.51,97.46l33.75,0l-3.64,11.8l-1.25,0c0.42,-1.73 0.62,-3.27 0.62,-4.62c0,-1.59 -0.49,-2.8 -1.47,-3.6c-0.74,-0.61 -2.65,-0.92 -5.73,-0.92l-3.51,0l-8.78,30.6c-1.11,3.85 -1.67,6.21 -1.67,7.11c0,0.83 0.35,1.51 1.05,2.05c0.7,0.54 1.93,0.8 3.7,0.8l1.51,0l-0.39,1.21l-19.33,0l0.36,-1.21l0.85,0c1.7,0 3.01,-0.27 3.93,-0.82c0.63,-0.37 1.21,-1.04 1.72,-2.02c0.51,-0.97 1.23,-3.03 2.15,-6.18l9.21,-31.55l-2.65,0c-2.56,0 -4.62,0.33 -6.18,0.98c-1.56,0.65 -2.82,1.61 -3.78,2.85c-0.96,1.24 -1.75,3.01 -2.36,5.31l-1.21,0l3.1,-11.79Z" style="fill:#b3b3b3;fill-rule:nonzero;"/><path d="M120.98,83.8l0,81" style="fill:none;fill-rule:nonzero;stroke:#b3b3b3;stroke-width:1px;"/></svg>