<!-- Generator: Adobe Illustrator 23.0.2, SVG Export Plug-In  -->
<svg version="1.1" xmlns="http://www.w3.org/2000/svg" xmlns:xlink="http://www.w3.org/1999/xlink" x="0px" y="0px"
	 width="359.65px" height="274.44px" viewBox="0 0 359.65 274.44" style="enable-background:new 0 0 359.65 274.44;"
	 xml:space="preserve">
<style type="text/css">
	.st0{fill:#F7F7CB;}
</style>
<defs>
</defs>
<g>
	<path class="st0" d="M63.96,108.63c-2.08,3.1-3.87,6.31-5.38,9.63c-1.51,3.31-2.87,6.62-4.09,9.92c-1.22,3.3-2.37,6.55-3.45,9.77
		c-1.08,3.21-2.23,6.28-3.45,9.19c-1.22,2.92-2.57,5.63-4.05,8.15c-1.48,2.52-3.22,4.75-5.24,6.69c-2.02,1.94-4.38,3.54-7.09,4.8
		c-2.71,1.26-5.89,2.08-9.53,2.47c-3.22,0.34-6.11,0.22-8.67-0.34c-2.56-0.57-4.76-1.48-6.59-2.74c-1.83-1.27-3.28-2.82-4.35-4.68
		c-1.07-1.85-1.73-3.91-1.97-6.18c-0.09-0.87-0.12-1.7-0.09-2.5c0.03-0.79,0.12-1.53,0.28-2.19l2.17,0.41
		c-0.11,0.58-0.18,1.22-0.22,1.91c-0.04,0.7-0.02,1.41,0.06,2.14c0.24,2.32,0.95,4.3,2.11,5.93c1.16,1.63,2.6,2.94,4.32,3.92
		c1.72,0.98,3.63,1.65,5.73,2.01c2.1,0.36,4.22,0.43,6.35,0.2c3.08-0.32,5.76-1.14,8.04-2.46c2.28-1.32,4.3-2.99,6.07-5.03
		c1.77-2.04,3.32-4.38,4.68-7.01c1.35-2.63,2.63-5.44,3.85-8.43c1.21-2.99,2.42-6.08,3.63-9.3c1.2-3.21,2.54-6.41,4-9.59
		c1.46-3.18,3.11-6.28,4.94-9.29c1.83-3.01,4-5.81,6.5-8.39L63.96,108.63z M92.4,95.66c-1.7,1.37-3.49,2.55-5.38,3.56
		c-1.89,1.01-3.86,1.86-5.91,2.55c-2.05,0.7-4.17,1.26-6.36,1.69c-2.19,0.43-4.42,0.76-6.69,1c-2.85,0.3-5.88,0.47-9.07,0.51
		c-3.19,0.04-6.37,0.05-9.52,0.05c-3.16-0.01-6.21-0.01-9.15,0.01c-2.94,0.01-5.59,0.14-7.94,0.39c-3.44,0.36-6.53,1.13-9.27,2.31
		c-2.73,1.18-5.02,2.68-6.87,4.5s-3.2,3.92-4.07,6.29c-0.87,2.37-1.16,4.94-0.87,7.71c0.2,1.93,0.72,3.64,1.54,5.12
		c0.82,1.48,1.9,2.69,3.23,3.63c1.33,0.94,2.88,1.6,4.65,1.99c1.77,0.39,3.69,0.48,5.76,0.26c1.79-0.19,3.62-0.6,5.47-1.23
		c1.86-0.63,3.66-1.48,5.42-2.54l1.06,1.63c-1.76,1.29-3.83,2.38-6.21,3.29c-2.38,0.9-4.82,1.48-7.31,1.75
		c-2.16,0.23-4.26,0.14-6.31-0.27c-2.05-0.41-3.92-1.15-5.6-2.23c-1.68-1.08-3.09-2.52-4.21-4.31c-1.12-1.79-1.82-3.96-2.09-6.51
		c-0.26-2.52-0.12-4.82,0.42-6.9c0.55-2.08,1.39-3.97,2.55-5.66c1.15-1.69,2.55-3.18,4.2-4.45c1.65-1.28,3.45-2.38,5.4-3.31
		c1.95-0.93,4.01-1.67,6.16-2.22c2.15-0.55,4.3-0.94,6.46-1.17c2.58-0.27,5.35-0.41,8.34-0.41c2.99,0,6.04,0.01,9.15,0.03
		c3.12,0.03,6.24,0.03,9.38,0.01c3.14-0.02,6.16-0.18,9.08-0.49c2.18-0.23,4.33-0.55,6.44-0.95c2.11-0.41,4.14-0.94,6.09-1.6
		c1.95-0.66,3.82-1.46,5.61-2.39c1.78-0.94,3.47-2.06,5.06-3.35L92.4,95.66z"/>
	<path class="st0" d="M85.04,145.17c0.11,0.02,0.23,0.02,0.34,0.01c0.11-0.01,0.24-0.02,0.38-0.04c0.78-0.08,1.49-0.23,2.12-0.46
		c0.63-0.22,1.2-0.53,1.71-0.92c0.51-0.39,0.99-0.89,1.44-1.49c0.45-0.6,0.87-1.31,1.26-2.15l1.64,1.02
		c-1.14,2.05-2.39,3.52-3.74,4.43c-1.35,0.91-2.82,1.44-4.42,1.61c-0.59,0.06-1.11,0.06-1.57,0c-0.99,2.14-2.1,3.99-3.32,5.55
		c-1.22,1.56-2.5,2.86-3.83,3.91c-1.33,1.05-2.68,1.85-4.04,2.4c-1.36,0.55-2.64,0.89-3.84,1.02c-1.23,0.13-2.4,0.03-3.49-0.29
		c-1.1-0.32-2.06-0.85-2.9-1.58c-0.84-0.73-1.53-1.64-2.07-2.71c-0.54-1.07-0.88-2.31-1.03-3.71s-0.07-2.85,0.22-4.35
		c0.29-1.5,0.75-3.01,1.37-4.52c0.62-1.51,1.38-2.98,2.27-4.42c0.9-1.44,1.88-2.79,2.97-4.07c1.08-1.27,2.22-2.44,3.41-3.5
		c1.19-1.06,2.4-1.95,3.62-2.67l1.53,1.62c-1.37,1.22-2.73,2.72-4.09,4.51c-1.36,1.78-2.55,3.71-3.6,5.77
		c-1.04,2.06-1.85,4.18-2.43,6.35c-0.58,2.17-0.76,4.23-0.56,6.19c0.19,1.76,0.72,3.09,1.61,3.97c0.88,0.88,2.13,1.24,3.72,1.07
		c1.23-0.13,2.42-0.51,3.57-1.14c1.15-0.63,2.25-1.44,3.31-2.43c1.06-0.99,2.05-2.13,2.99-3.43c0.94-1.3,1.81-2.67,2.62-4.12
		c-0.86-0.39-1.64-0.95-2.34-1.69c-0.7-0.73-1.31-1.59-1.84-2.57c-0.53-0.98-0.96-2.04-1.29-3.2c-0.33-1.15-0.57-2.35-0.69-3.58
		c-0.13-1.23-0.1-2.41,0.1-3.53c0.19-1.12,0.52-2.13,0.98-3.01c0.46-0.88,1.03-1.6,1.71-2.15c0.68-0.55,1.45-0.87,2.32-0.97
		c0.78-0.08,1.5,0.05,2.16,0.39c0.66,0.34,1.24,0.85,1.73,1.52c0.49,0.67,0.91,1.48,1.23,2.44c0.33,0.96,0.55,1.99,0.67,3.11
		c0.09,0.84,0.12,1.77,0.08,2.79c-0.03,1.02-0.13,2.06-0.29,3.11c-0.16,1.05-0.37,2.09-0.65,3.12
		C85.81,143.4,85.46,144.33,85.04,145.17z M78.23,135.31c0.09,0.81,0.25,1.69,0.49,2.62c0.24,0.94,0.56,1.84,0.96,2.7
		c0.4,0.86,0.88,1.66,1.44,2.37c0.56,0.72,1.21,1.27,1.96,1.64c0.4-1.03,0.72-2.08,0.96-3.14c0.24-1.06,0.43-2.08,0.57-3.05
		c0.14-0.98,0.21-1.88,0.22-2.72c0.01-0.84-0.02-1.56-0.08-2.18c-0.09-0.84-0.24-1.6-0.45-2.29c-0.21-0.68-0.47-1.27-0.76-1.77
		c-0.29-0.49-0.63-0.87-1.01-1.12c-0.38-0.26-0.78-0.36-1.2-0.32c-0.56,0.06-1.06,0.3-1.49,0.73c-0.44,0.43-0.79,0.97-1.06,1.64
		c-0.27,0.67-0.45,1.42-0.55,2.27C78.14,133.55,78.14,134.42,78.23,135.31z"/>
	<path class="st0" d="M126.69,130.3c0.13,1.2,0.05,2.45-0.24,3.74c-0.29,1.29-0.69,2.59-1.2,3.9c-0.51,1.31-1.07,2.61-1.67,3.89
		c-0.6,1.28-1.16,2.51-1.69,3.7c-0.53,1.19-0.95,2.31-1.26,3.38c-0.31,1.07-0.42,2.02-0.34,2.86c0.07,0.64,0.25,1.06,0.56,1.26
		c0.3,0.19,0.62,0.27,0.96,0.24c1.06-0.11,2.2-0.76,3.4-1.95c1.2-1.19,2.4-2.65,3.59-4.39s2.36-3.62,3.5-5.63
		c1.15-2.02,2.18-3.92,3.09-5.72l1.63,1.02c-0.19,0.36-0.52,1.07-1.01,2.12c-0.48,1.06-1.09,2.27-1.83,3.63
		c-0.73,1.37-1.57,2.8-2.5,4.3c-0.93,1.5-1.95,2.89-3.06,4.19c-1.11,1.29-2.28,2.38-3.5,3.28c-1.22,0.89-2.49,1.41-3.81,1.55
		c-0.76,0.08-1.45,0.03-2.1-0.16c-0.64-0.19-1.2-0.48-1.69-0.88c-0.48-0.4-0.88-0.89-1.19-1.47s-0.51-1.2-0.58-1.87
		c-0.11-1.09,0.01-2.3,0.36-3.63c0.35-1.32,0.83-2.7,1.41-4.12c0.59-1.42,1.24-2.85,1.97-4.3c0.72-1.45,1.39-2.83,1.98-4.14
		c0.6-1.31,1.09-2.51,1.47-3.61c0.38-1.1,0.53-2.03,0.45-2.79c-0.09-0.87-0.4-1.57-0.92-2.11c-0.52-0.54-1.21-0.76-2.05-0.68
		c-0.9,0.09-1.89,0.57-2.99,1.44c-1.1,0.87-2.3,2.09-3.6,3.67c-1.3,1.58-2.71,3.5-4.21,5.77c-1.5,2.27-3.12,4.84-4.86,7.71
		c-0.99,1.66-1.95,3.26-2.89,4.8c-0.41,0.67-0.82,1.35-1.23,2.04c-0.41,0.69-0.82,1.38-1.23,2.06c-0.41,0.68-0.79,1.33-1.15,1.95
		c-0.36,0.62-0.69,1.15-0.98,1.61l-3.85-1.12l4.2-7.28c0.6-1.02,1.21-2.12,1.82-3.29c0.61-1.17,1.22-2.37,1.81-3.61
		c0.59-1.24,1.15-2.48,1.67-3.72c0.52-1.24,1-2.45,1.44-3.63c0.64-1.76,1.05-3.22,1.24-4.35c0.19-1.14,0.25-2.04,0.18-2.71
		c-0.08-0.76-0.27-1.24-0.58-1.45c-0.3-0.21-0.71-0.29-1.21-0.23c-0.53,0.06-1.11,0.39-1.74,1.01c-0.63,0.62-1.26,1.39-1.9,2.32
		c-0.64,0.93-1.27,1.97-1.9,3.13c-0.63,1.16-1.22,2.3-1.78,3.44c-0.56,1.13-1.08,2.21-1.57,3.22c-0.49,1.01-0.9,1.83-1.23,2.46
		l-1.64-1.02c1.19-2.39,2.27-4.58,3.24-6.56c0.97-1.98,1.92-3.7,2.85-5.16c0.94-1.46,1.88-2.61,2.82-3.46
		c0.94-0.85,1.99-1.33,3.14-1.45c0.62-0.06,1.22,0,1.82,0.19c0.6,0.19,1.14,0.51,1.63,0.95c0.48,0.44,0.89,1,1.22,1.68
		c0.33,0.67,0.54,1.47,0.63,2.4c0.08,0.73,0.07,1.49-0.01,2.29c1.1-1.33,2.15-2.45,3.13-3.34c0.98-0.9,1.9-1.62,2.74-2.18
		c0.85-0.56,1.64-0.97,2.37-1.25c0.73-0.28,1.41-0.45,2.03-0.51c0.53-0.06,1.16-0.02,1.88,0.1c0.72,0.12,1.42,0.42,2.09,0.88
		c0.67,0.47,1.27,1.15,1.81,2.04C126.19,127.63,126.54,128.82,126.69,130.3z"/>
	<path class="st0" d="M152.01,121.57c-0.88,2.1-1.79,4.4-2.71,6.89c-0.93,2.49-1.85,5.07-2.77,7.74c-0.92,2.67-1.84,5.39-2.75,8.14
		c-0.91,2.76-1.81,5.45-2.69,8.09c2.48-1.73,4.64-3.43,6.49-5.1c1.85-1.67,3.45-3.3,4.81-4.9c1.36-1.6,2.52-3.17,3.49-4.72
		c0.97-1.55,1.83-3.06,2.58-4.56l1.64,1.02c-1.06,2.04-2.22,3.98-3.48,5.82c-1.26,1.85-2.71,3.66-4.33,5.44
		c-1.62,1.78-3.47,3.58-5.53,5.38c-2.06,1.8-4.39,3.67-6.99,5.62c-0.78,2.32-1.52,4.5-2.24,6.54c-0.72,2.04-1.4,3.89-2.05,5.54
		c-1.12,2.81-2.4,5.46-3.83,7.96c-1.44,2.5-2.94,4.7-4.51,6.61c-1.57,1.91-3.15,3.44-4.76,4.62c-1.6,1.17-3.13,1.84-4.59,1.99
		c-0.59,0.06-1.17,0.02-1.73-0.11c-0.57-0.14-1.09-0.38-1.58-0.73c-0.49-0.34-0.9-0.82-1.23-1.42c-0.33-0.6-0.55-1.35-0.64-2.25
		c-0.25-2.35,0.07-4.73,0.97-7.15c0.89-2.42,2.29-4.83,4.2-7.26s4.32-4.84,7.22-7.25c2.9-2.41,6.24-4.78,10.01-7.1
		c0.72-2,1.39-3.87,2-5.6c0.61-1.73,1.24-3.44,1.88-5.12c0.64-1.68,1.32-3.37,2.03-5.07c0.71-1.7,1.52-3.54,2.44-5.5
		c0.91-1.96,1.95-4.1,3.1-6.4c1.16-2.3,2.51-4.88,4.05-7.73L152.01,121.57z M117.68,187.45c1.46-0.15,2.83-0.89,4.12-2.22
		c1.29-1.32,2.56-3.14,3.8-5.45c1.24-2.31,2.5-5.05,3.76-8.23c1.26-3.18,2.6-6.69,4.01-10.55l-1.7,1.16
		c-2.75,1.87-5.19,3.89-7.32,6.06c-2.14,2.16-3.91,4.3-5.33,6.4c-1.42,2.1-2.47,4.08-3.15,5.94c-0.68,1.85-0.96,3.38-0.83,4.59
		c0.08,0.73,0.33,1.32,0.76,1.77C116.2,187.36,116.84,187.54,117.68,187.45z"/>
	<path class="st0" d="M162.28,138.91c-0.02,0.34-0.03,0.68-0.02,1.02c0.01,0.34,0.03,0.68,0.06,1.01c0.11,1.01,0.35,1.95,0.74,2.83
		c0.39,0.88,0.91,1.63,1.55,2.26c0.65,0.63,1.42,1.09,2.31,1.39c0.89,0.3,1.89,0.4,2.98,0.28c3.67-0.39,7.08-2,10.23-4.85
		c3.15-2.85,6.14-7.15,8.96-12.91l1.56,1.11c-1.52,3.27-3.13,6.07-4.81,8.38c-1.68,2.31-3.4,4.23-5.15,5.74
		c-1.75,1.51-3.51,2.66-5.26,3.44c-1.76,0.78-3.46,1.26-5.11,1.43c-1.2,0.13-2.5,0.09-3.87-0.1c-1.38-0.19-2.68-0.62-3.89-1.29
		c-1.22-0.66-2.26-1.61-3.14-2.85c-0.88-1.24-1.42-2.84-1.63-4.8c-0.22-2.1-0.08-4.16,0.43-6.18c0.51-2.02,1.25-3.93,2.22-5.73
		s2.13-3.47,3.46-5.01c1.34-1.54,2.72-2.88,4.14-4.02c1.42-1.14,2.83-2.06,4.23-2.76c1.4-0.7,2.66-1.11,3.78-1.23
		c0.73-0.08,1.48-0.04,2.26,0.1c0.78,0.14,1.49,0.42,2.15,0.84c0.65,0.41,1.21,0.99,1.67,1.73c0.46,0.74,0.75,1.66,0.86,2.75
		c0.16,1.48-0.04,2.91-0.59,4.29c-0.55,1.37-1.34,2.67-2.37,3.9c-1.03,1.23-2.26,2.36-3.67,3.4c-1.42,1.04-2.92,1.96-4.51,2.75
		c-1.59,0.79-3.2,1.46-4.84,2C165.36,138.36,163.79,138.72,162.28,138.91z M162.42,137.07c1.85-0.39,3.58-0.97,5.17-1.73
		c1.59-0.76,3.02-1.64,4.31-2.64c1.28-1,2.41-2.06,3.38-3.18c0.97-1.12,1.77-2.24,2.39-3.35c0.62-1.11,1.07-2.16,1.37-3.16
		c0.29-0.99,0.4-1.87,0.32-2.62c-0.08-0.76-0.35-1.34-0.8-1.74c-0.45-0.4-0.96-0.58-1.52-0.52c-1.23,0.13-2.57,0.72-4.02,1.76
		c-1.45,1.04-2.86,2.42-4.23,4.14c-1.38,1.72-2.63,3.69-3.77,5.94C163.87,132.21,163.01,134.57,162.42,137.07z"/>
	<path class="st0" d="M251.85,88.86c-2.08,3.1-3.87,6.31-5.38,9.63c-1.5,3.31-2.87,6.62-4.09,9.92c-1.22,3.3-2.37,6.55-3.45,9.77
		c-1.08,3.21-2.23,6.28-3.45,9.19c-1.22,2.92-2.57,5.63-4.05,8.15c-1.48,2.52-3.22,4.75-5.24,6.69c-2.02,1.94-4.38,3.54-7.09,4.8
		c-2.71,1.26-5.89,2.08-9.53,2.47c-3.22,0.34-6.11,0.22-8.67-0.34c-2.56-0.57-4.76-1.48-6.59-2.74c-1.83-1.27-3.28-2.82-4.36-4.68
		c-1.07-1.85-1.73-3.91-1.97-6.18c-0.09-0.87-0.12-1.7-0.09-2.5c0.03-0.79,0.12-1.53,0.28-2.19l2.17,0.41
		c-0.11,0.58-0.18,1.22-0.22,1.91c-0.04,0.7-0.02,1.41,0.06,2.14c0.24,2.32,0.95,4.3,2.11,5.93c1.16,1.63,2.6,2.94,4.32,3.92
		c1.72,0.98,3.63,1.65,5.73,2.01c2.1,0.36,4.22,0.43,6.35,0.2c3.08-0.32,5.76-1.14,8.04-2.46c2.28-1.32,4.31-2.99,6.07-5.03
		c1.77-2.04,3.32-4.38,4.68-7.01c1.35-2.63,2.63-5.44,3.85-8.43c1.21-2.99,2.42-6.08,3.63-9.3c1.2-3.21,2.54-6.41,4-9.59
		c1.46-3.18,3.11-6.28,4.94-9.29c1.83-3.01,4-5.81,6.5-8.39L251.85,88.86z M280.28,75.9c-1.7,1.37-3.49,2.55-5.38,3.56
		c-1.89,1.01-3.86,1.86-5.91,2.55c-2.05,0.7-4.17,1.26-6.36,1.69c-2.19,0.43-4.42,0.76-6.69,1c-2.85,0.3-5.88,0.47-9.07,0.51
		c-3.19,0.04-6.37,0.05-9.52,0.05c-3.16-0.01-6.21-0.01-9.15,0.01c-2.94,0.01-5.59,0.14-7.94,0.39c-3.44,0.36-6.53,1.13-9.27,2.31
		c-2.73,1.18-5.02,2.68-6.87,4.5c-1.85,1.82-3.2,3.92-4.07,6.29c-0.87,2.37-1.16,4.94-0.87,7.71c0.2,1.93,0.72,3.64,1.54,5.12
		s1.9,2.69,3.23,3.63c1.33,0.94,2.88,1.6,4.65,1.99c1.77,0.39,3.69,0.48,5.76,0.26c1.79-0.19,3.62-0.6,5.47-1.23
		c1.86-0.63,3.66-1.48,5.42-2.54l1.06,1.63c-1.76,1.29-3.83,2.38-6.21,3.29c-2.38,0.9-4.82,1.48-7.31,1.75
		c-2.16,0.23-4.26,0.14-6.31-0.27c-2.05-0.41-3.92-1.15-5.6-2.23c-1.68-1.08-3.09-2.52-4.21-4.31c-1.12-1.79-1.82-3.96-2.09-6.51
		c-0.26-2.52-0.12-4.82,0.42-6.9c0.55-2.08,1.39-3.97,2.55-5.66c1.15-1.69,2.55-3.18,4.2-4.45c1.65-1.28,3.45-2.38,5.4-3.31
		c1.95-0.93,4.01-1.67,6.16-2.22c2.15-0.55,4.3-0.94,6.46-1.17c2.57-0.27,5.35-0.41,8.34-0.41c2.99,0,6.04,0.01,9.15,0.03
		c3.12,0.03,6.24,0.03,9.38,0.01c3.14-0.02,6.16-0.18,9.08-0.49c2.18-0.23,4.33-0.55,6.44-0.95c2.11-0.41,4.14-0.94,6.09-1.6
		c1.95-0.66,3.82-1.46,5.61-2.39c1.78-0.94,3.47-2.06,5.06-3.35L280.28,75.9z"/>
	<path class="st0" d="M252.63,129.41c-0.02,0.34-0.03,0.68-0.02,1.02c0.01,0.34,0.03,0.68,0.06,1.01c0.11,1.01,0.35,1.95,0.74,2.83
		c0.39,0.88,0.91,1.63,1.55,2.26c0.65,0.63,1.42,1.09,2.31,1.39c0.89,0.3,1.89,0.4,2.98,0.28c3.67-0.39,7.08-2,10.23-4.85
		c3.15-2.85,6.14-7.15,8.96-12.91l1.56,1.11c-1.52,3.27-3.13,6.07-4.81,8.38c-1.68,2.31-3.4,4.23-5.15,5.74
		c-1.75,1.51-3.51,2.66-5.26,3.44c-1.76,0.78-3.46,1.26-5.11,1.43c-1.2,0.13-2.5,0.09-3.87-0.1c-1.38-0.19-2.68-0.62-3.89-1.29
		c-1.22-0.66-2.26-1.61-3.14-2.85c-0.88-1.24-1.42-2.84-1.63-4.8c-0.22-2.1-0.08-4.16,0.43-6.18c0.51-2.02,1.25-3.93,2.22-5.73
		c0.97-1.8,2.13-3.47,3.46-5.01c1.34-1.54,2.72-2.88,4.14-4.02c1.42-1.14,2.83-2.06,4.23-2.76c1.4-0.7,2.66-1.11,3.78-1.23
		c0.73-0.08,1.48-0.04,2.26,0.1c0.78,0.14,1.49,0.42,2.15,0.84s1.21,0.99,1.67,1.73c0.46,0.74,0.75,1.66,0.86,2.75
		c0.16,1.48-0.04,2.91-0.59,4.29c-0.55,1.37-1.34,2.67-2.37,3.9c-1.03,1.23-2.26,2.36-3.67,3.4c-1.42,1.04-2.92,1.96-4.51,2.75
		c-1.59,0.79-3.2,1.46-4.84,2C255.71,128.86,254.14,129.22,252.63,129.41z M252.78,127.57c1.85-0.39,3.58-0.97,5.17-1.73
		c1.59-0.76,3.02-1.64,4.31-2.64c1.28-1,2.41-2.06,3.38-3.18c0.97-1.12,1.77-2.24,2.39-3.35c0.62-1.11,1.07-2.16,1.37-3.16
		c0.29-0.99,0.4-1.87,0.32-2.62c-0.08-0.76-0.35-1.34-0.8-1.74c-0.45-0.4-0.96-0.58-1.52-0.52c-1.23,0.13-2.57,0.72-4.02,1.76
		c-1.45,1.04-2.86,2.42-4.23,4.14c-1.38,1.72-2.63,3.69-3.77,5.94C254.22,122.7,253.36,125.07,252.78,127.57z"/>
	<path class="st0" d="M306.07,118.82c-0.36,0.66-0.76,1.54-1.23,2.65c-0.46,1.11-1.01,2.31-1.64,3.61c-0.63,1.3-1.33,2.62-2.11,3.98
		c-0.78,1.36-1.65,2.59-2.62,3.71c-0.97,1.12-2.05,2.07-3.25,2.85c-1.19,0.78-2.5,1.24-3.93,1.39c-0.78,0.08-1.54,0.04-2.26-0.12
		c-0.73-0.16-1.38-0.47-1.96-0.92c-0.59-0.45-1.07-1.03-1.46-1.74c-0.39-0.71-0.63-1.57-0.74-2.58c-0.14-1.37-0.02-2.83,0.37-4.39
		c0.39-1.55,0.87-3.07,1.45-4.55c0.58-1.48,1.17-2.83,1.78-4.07c0.61-1.24,1.04-2.22,1.3-2.96c0.26-0.73,0.37-1.35,0.31-1.86
		c-0.04-0.36-0.19-0.67-0.46-0.93c-0.27-0.25-0.59-0.5-0.97-0.73c-0.38-0.23-0.77-0.47-1.18-0.73c-0.41-0.25-0.76-0.58-1.06-0.97
		c-0.58,1.19-1.18,2.4-1.78,3.63c-0.54,1.05-1.12,2.22-1.75,3.52c-0.63,1.3-1.23,2.57-1.81,3.82l-1.64-1.02l7.51-15.01l1.28,0.5
		c-0.04,0.17-0.1,0.45-0.19,0.83c-0.09,0.38-0.11,0.78-0.07,1.2c0.03,0.31,0.11,0.6,0.24,0.89c0.13,0.28,0.36,0.53,0.7,0.75
		c1.23,0.89,2.19,1.57,2.89,2.05c0.7,0.48,1.22,0.86,1.54,1.15c0.33,0.29,0.54,0.54,0.63,0.74c0.09,0.2,0.16,0.47,0.19,0.81
		c0.04,0.34,0.02,0.75-0.04,1.24c-0.06,0.49-0.19,1.08-0.39,1.78c-0.2,0.7-0.48,1.53-0.84,2.49c-0.37,0.96-0.84,2.08-1.41,3.35
		c-0.34,0.77-0.68,1.55-1.01,2.33c-0.33,0.78-0.61,1.57-0.86,2.36c-0.24,0.79-0.42,1.57-0.54,2.35c-0.12,0.78-0.14,1.52-0.06,2.21
		c0.06,0.53,0.18,0.95,0.37,1.26c0.19,0.31,0.42,0.53,0.69,0.67c0.27,0.14,0.55,0.22,0.85,0.25c0.3,0.03,0.59,0.02,0.87-0.01
		c0.92-0.1,1.81-0.47,2.66-1.11c0.85-0.64,1.67-1.44,2.46-2.4c0.79-0.96,1.54-2.04,2.25-3.23c0.71-1.19,1.38-2.4,2.02-3.63
		c0.63-1.23,1.22-2.4,1.75-3.52c0.53-1.12,1.01-2.09,1.43-2.93L306.07,118.82z"/>
	<path class="st0" d="M321,103.79c-0.88,2.1-1.79,4.4-2.71,6.89c-0.93,2.49-1.85,5.07-2.77,7.74c-0.92,2.67-1.84,5.39-2.75,8.14
		c-0.91,2.76-1.81,5.45-2.69,8.09c2.48-1.73,4.64-3.43,6.49-5.1c1.85-1.67,3.45-3.3,4.81-4.9c1.36-1.6,2.52-3.17,3.49-4.72
		c0.97-1.55,1.83-3.06,2.58-4.56l1.64,1.02c-1.06,2.04-2.22,3.98-3.48,5.82c-1.26,1.85-2.71,3.66-4.33,5.44
		c-1.62,1.78-3.47,3.58-5.53,5.38c-2.06,1.8-4.39,3.67-6.99,5.62c-0.78,2.32-1.52,4.5-2.24,6.54c-0.72,2.04-1.4,3.89-2.05,5.54
		c-1.12,2.81-2.4,5.46-3.83,7.96c-1.44,2.5-2.94,4.7-4.51,6.61c-1.57,1.91-3.15,3.44-4.76,4.62c-1.6,1.17-3.13,1.84-4.59,1.99
		c-0.59,0.06-1.17,0.02-1.73-0.11c-0.57-0.14-1.09-0.38-1.58-0.73c-0.49-0.34-0.9-0.82-1.23-1.42c-0.33-0.6-0.55-1.35-0.64-2.25
		c-0.25-2.35,0.07-4.73,0.97-7.15c0.89-2.41,2.29-4.83,4.2-7.26c1.91-2.42,4.32-4.84,7.22-7.25c2.9-2.41,6.24-4.78,10.01-7.1
		c0.72-2,1.39-3.87,2-5.6c0.61-1.73,1.24-3.44,1.88-5.12c0.64-1.68,1.32-3.37,2.03-5.07c0.71-1.7,1.52-3.54,2.44-5.5
		c0.91-1.96,1.95-4.1,3.1-6.4c1.16-2.3,2.51-4.88,4.05-7.73L321,103.79z M286.67,169.68c1.46-0.15,2.83-0.89,4.12-2.22
		c1.29-1.32,2.56-3.14,3.8-5.45c1.24-2.31,2.5-5.05,3.76-8.23c1.26-3.18,2.6-6.69,4.01-10.55l-1.7,1.16
		c-2.75,1.87-5.19,3.89-7.32,6.06c-2.14,2.16-3.91,4.3-5.33,6.4c-1.42,2.1-2.47,4.08-3.15,5.94c-0.68,1.85-0.96,3.38-0.83,4.59
		c0.08,0.73,0.33,1.32,0.76,1.77C285.19,169.58,285.83,169.76,286.67,169.68z M326.07,95.91c-0.47,0.87-1.02,1.61-1.64,2.21
		c-0.62,0.6-1.22,0.93-1.81,1c-0.48,0.05-0.86-0.09-1.15-0.41c-0.29-0.32-0.46-0.72-0.51-1.2c-0.05-0.45-0.01-0.99,0.13-1.63
		c0.13-0.64,0.34-1.25,0.63-1.85c0.29-0.6,0.65-1.11,1.09-1.56c0.43-0.44,0.92-0.69,1.45-0.75c0.62-0.06,1.15,0.11,1.6,0.51
		c0.45,0.41,0.71,0.86,0.76,1.36C326.71,94.3,326.52,95.07,326.07,95.91z"/>
	<path class="st0" d="M331.27,121.13c-0.02,0.34-0.03,0.68-0.02,1.02c0.01,0.34,0.03,0.68,0.06,1.01c0.11,1.01,0.35,1.95,0.74,2.83
		c0.39,0.88,0.91,1.63,1.55,2.26c0.65,0.63,1.42,1.09,2.31,1.39c0.89,0.3,1.89,0.4,2.98,0.28c3.67-0.39,7.08-2,10.23-4.85
		c3.15-2.85,6.14-7.15,8.96-12.91l1.56,1.11c-1.52,3.27-3.13,6.07-4.81,8.38c-1.68,2.31-3.4,4.23-5.15,5.74
		c-1.75,1.51-3.51,2.66-5.26,3.44c-1.76,0.78-3.46,1.26-5.11,1.43c-1.2,0.13-2.5,0.09-3.87-0.1c-1.38-0.19-2.68-0.62-3.89-1.29
		s-2.26-1.61-3.14-2.85c-0.88-1.24-1.42-2.84-1.63-4.8c-0.22-2.1-0.08-4.16,0.43-6.18c0.51-2.02,1.25-3.93,2.22-5.73
		s2.13-3.47,3.46-5.01c1.34-1.54,2.72-2.88,4.14-4.02c1.42-1.14,2.83-2.06,4.23-2.76c1.4-0.7,2.66-1.11,3.78-1.23
		c0.73-0.08,1.48-0.04,2.26,0.1c0.78,0.14,1.49,0.42,2.15,0.84c0.65,0.41,1.21,0.99,1.67,1.73c0.46,0.74,0.75,1.66,0.86,2.75
		c0.16,1.48-0.04,2.91-0.59,4.29c-0.55,1.37-1.34,2.67-2.37,3.9c-1.03,1.23-2.26,2.36-3.67,3.4c-1.42,1.04-2.92,1.96-4.51,2.75
		c-1.59,0.79-3.2,1.46-4.84,2C334.35,120.58,332.78,120.95,331.27,121.13z M331.41,119.29c1.85-0.39,3.58-0.97,5.17-1.73
		c1.59-0.76,3.02-1.64,4.31-2.64c1.28-1,2.41-2.06,3.38-3.18c0.97-1.12,1.77-2.24,2.39-3.35c0.62-1.11,1.07-2.16,1.37-3.16
		c0.29-0.99,0.4-1.87,0.32-2.62c-0.08-0.76-0.35-1.34-0.8-1.74c-0.45-0.4-0.96-0.58-1.52-0.52c-1.23,0.13-2.57,0.72-4.02,1.76
		c-1.45,1.04-2.86,2.42-4.23,4.14c-1.38,1.72-2.63,3.69-3.77,5.94C332.86,114.43,332,116.8,331.41,119.29z"/>
</g>
<g>
	<path class="st0" d="M157.77,118.54c-0.11-0.12-0.17-0.25-0.19-0.38c-0.01-0.14,0.07-0.31,0.26-0.51c0.19-0.21,0.41-0.44,0.68-0.71
		c0.27-0.27,0.53-0.57,0.79-0.91c0.63-0.8,0.88-1.79,0.76-2.96c-0.06-0.61-0.32-1.3-0.76-2.05c-0.14-0.23-0.35-0.57-0.63-1
		c-0.99,0.81-1.93,1.47-2.83,1.97c-0.9,0.5-1.8,0.79-2.7,0.89c-0.9,0.1-1.75,0.02-2.53-0.23c-0.79-0.25-1.46-0.68-2.03-1.29
		s-0.89-1.35-0.98-2.22c-0.12-1.11,0.09-2.12,0.64-3.03c0.41-0.7,0.8-1.24,1.16-1.6c0.36-0.36,0.64-0.64,0.84-0.83
		c0.2-0.19,0.48-0.43,0.85-0.72c0.56-0.45,1.05-0.82,1.45-1.11c0.4-0.29,0.66-0.48,0.76-0.57c-0.33-0.87-0.53-1.58-0.59-2.15
		c-0.1-0.92,0.11-1.82,0.63-2.72c0.52-0.9,1.2-1.64,2.06-2.22c0.86-0.58,1.73-0.92,2.63-1.02c1.05-0.11,2.05,0.07,3.02,0.54
		c0.47,0.22,0.87,0.54,1.19,0.96c0.32,0.42,0.51,0.89,0.57,1.43c0.04,0.4-0.35,0.88-1.19,1.43c-0.59,0.39-1.21,0.76-1.84,1.1
		c-0.63,0.34-1,0.54-1.1,0.6c-0.2-0.18-0.34-0.4-0.43-0.66c0.08-0.06,0.27-0.18,0.59-0.36c0.32-0.18,0.59-0.35,0.81-0.49
		c0.22-0.15,0.43-0.33,0.62-0.54c0.19-0.21,0.28-0.42,0.26-0.6c-0.06-0.61-0.35-1.08-0.87-1.43c-0.52-0.35-1.04-0.5-1.57-0.44
		s-0.95,0.19-1.27,0.41c-0.32,0.22-0.55,0.49-0.7,0.82c-0.3,0.65-0.42,1.31-0.35,1.98c0.07,0.67,0.2,1.27,0.39,1.81
		c0.19,0.53,0.4,1.01,0.62,1.44c0.22,0.43,0.52,0.93,0.9,1.49c0.38,0.57,0.7,1.02,0.95,1.35c0.25,0.33,0.6,0.78,1.05,1.35
		c0.45,0.57,0.76,0.97,0.93,1.2c0.57-0.46,1.12-1.09,1.65-1.89c0.53-0.8,0.95-1.58,1.26-2.32c0.08-0.19,0.15-0.7,0.21-1.54
		c0.06-0.84,0.17-1.33,0.34-1.49l0.48-0.07c0.03,0,0.04,0,0.06-0.01c0.31-0.03,0.48,0.13,0.52,0.48c0.07,0.67-0.07,1.53-0.42,2.59
		c-0.35,1.05-0.83,2.08-1.45,3.07c-0.62,1-1.25,1.74-1.88,2.23c0.4,0.47,0.75,1.02,1.07,1.65c0.31,0.63,0.5,1.21,0.55,1.74
		c0.1,0.97-0.06,2.03-0.5,3.16c-0.43,1.13-1.08,2.13-1.95,2.98C159.7,117.96,158.77,118.44,157.77,118.54z M158.01,109.04
		l-4.32-6.58c-1.57,1.17-2.51,2.2-2.82,3.1c-0.14,0.42-0.18,0.85-0.14,1.3c0.11,1.06,0.61,1.96,1.49,2.7
		c0.88,0.73,1.85,1.05,2.91,0.93c0.51-0.05,0.98-0.2,1.41-0.43C156.96,109.84,157.45,109.5,158.01,109.04z"/>
</g>
<g>
	<path class="st0" d="M300.33,85.72c-0.2,0-0.38-0.12-0.46-0.31C278.77,34.13,229.3,1,173.86,1S68.96,34.13,47.85,85.41
		c-0.1,0.26-0.4,0.38-0.65,0.27c-0.25-0.1-0.38-0.4-0.27-0.65C68.19,33.38,118.01,0,173.86,0S279.54,33.38,300.8,85.03
		c0.11,0.26-0.02,0.55-0.27,0.65C300.46,85.71,300.4,85.72,300.33,85.72z"/>
	<path class="st0" d="M173.86,274.44c-58.33,0-110.42-36.99-129.6-92.05c-0.09-0.26,0.05-0.54,0.31-0.64
		c0.26-0.09,0.55,0.05,0.64,0.31c19.05,54.66,70.75,91.38,128.66,91.38s109.61-36.72,128.66-91.38c0.09-0.26,0.38-0.4,0.64-0.31
		c0.26,0.09,0.4,0.38,0.31,0.64C284.28,237.44,232.19,274.44,173.86,274.44z"/>
</g>
<g>
	<path class="st0" d="M117.16,216.73l-4.99,12.44h-2.06l4.37-10.68h-5.46v-1.76H117.16z"/>
	<path class="st0" d="M120.52,227.45c0.2-0.2,0.43-0.3,0.7-0.3c0.24,0,0.46,0.1,0.67,0.3c0.21,0.2,0.31,0.44,0.31,0.72
		c0,0.29-0.1,0.53-0.3,0.72c-0.2,0.19-0.43,0.28-0.68,0.28c-0.26,0-0.5-0.09-0.7-0.28c-0.2-0.19-0.3-0.43-0.3-0.72
		C120.22,227.89,120.32,227.66,120.52,227.45z"/>
	<path class="st0" d="M139.99,217.3c-0.55-0.16-1.08-0.25-1.57-0.25c-0.74,0-1.33,0.17-1.77,0.5s-0.65,0.79-0.65,1.37
		c0,0.57,0.25,1.03,0.77,1.39c0.51,0.36,1.24,0.71,2.18,1.07c0.71,0.25,1.3,0.53,1.79,0.82c0.49,0.3,0.89,0.71,1.21,1.23
		c0.32,0.52,0.48,1.19,0.48,1.99c0,0.73-0.18,1.39-0.55,1.99c-0.37,0.59-0.88,1.06-1.56,1.4c-0.67,0.34-1.46,0.51-2.37,0.51
		c-0.84,0-1.66-0.14-2.44-0.41c-0.78-0.27-1.47-0.61-2.06-1.03l0.81-1.46c0.47,0.35,1.03,0.65,1.68,0.9
		c0.66,0.25,1.27,0.37,1.83,0.37c0.73,0,1.37-0.19,1.92-0.57c0.55-0.38,0.82-0.94,0.82-1.68c0-0.63-0.23-1.13-0.69-1.5
		c-0.46-0.37-1.11-0.72-1.94-1.05c-0.77-0.29-1.41-0.57-1.92-0.85s-0.95-0.66-1.31-1.14c-0.37-0.49-0.55-1.09-0.55-1.82
		c0-1.07,0.38-1.94,1.13-2.6c0.75-0.66,1.72-1.01,2.92-1.05c1.47,0,2.84,0.37,4.1,1.1l-0.7,1.42
		C141.07,217.68,140.55,217.47,139.99,217.3z"/>
	<path class="st0" d="M156.27,215.51v1.76h-7.05v4.16h6.29v1.76h-6.29v4.22h7.32v1.78h-9.15v-13.67H156.27z"/>
	<path class="st0" d="M168.77,216.62c0.84,0.74,1.26,1.78,1.26,3.12c0,0.77-0.15,1.49-0.46,2.16c-0.31,0.67-0.81,1.21-1.49,1.63
		s-1.55,0.62-2.6,0.62h-2.02v5.03h-1.83v-13.67h3.67C166.77,215.51,167.94,215.88,168.77,216.62z M167.07,221.95
		c0.41-0.28,0.7-0.61,0.88-1.01c0.18-0.4,0.26-0.78,0.26-1.16c0-0.66-0.21-1.24-0.64-1.75c-0.43-0.51-1.1-0.77-2-0.77h-2.12v5.1
		h2.02C166.13,222.37,166.66,222.23,167.07,221.95z"/>
	<path class="st0" d="M182.83,215.51v1.76h-3.67v11.91h-1.83v-11.91h-3.57v-1.76H182.83z"/>
	<path class="st0" d="M203.04,227.4v1.78h-8.47l0.62-0.62c1.29-1.29,2.29-2.33,3.01-3.12c0.72-0.79,1.32-1.6,1.81-2.41
		c0.49-0.81,0.73-1.58,0.73-2.32c0-0.77-0.23-1.35-0.68-1.76c-0.45-0.4-1.01-0.6-1.66-0.6c-0.52,0-0.95,0.11-1.29,0.32
		c-0.35,0.21-0.6,0.49-0.76,0.81c-0.16,0.33-0.24,0.66-0.24,0.98c0,0.81,0.25,1.47,0.74,1.98l-1.12,1.02
		c-0.42-0.25-0.75-0.68-1.01-1.28c-0.26-0.6-0.39-1.16-0.39-1.69c0-0.69,0.17-1.34,0.52-1.94s0.85-1.08,1.5-1.44
		s1.44-0.54,2.34-0.54c0.77,0,1.45,0.18,2.05,0.54s1.06,0.84,1.39,1.45c0.33,0.6,0.49,1.27,0.49,1.99c0,0.72-0.17,1.44-0.51,2.15
		c-0.34,0.72-0.76,1.39-1.26,2.02s-1.16,1.41-1.99,2.34l-0.28,0.32H203.04z"/>
	<path class="st0" d="M208.93,228.46c-0.79-0.51-1.4-1.24-1.84-2.2c-0.44-0.96-0.66-2.08-0.66-3.37c0-2.05,0.46-3.62,1.39-4.7
		c0.93-1.08,2.2-1.61,3.83-1.6c1.02,0,1.92,0.25,2.71,0.76c0.79,0.5,1.4,1.24,1.84,2.19s0.66,2.07,0.66,3.35
		c0,1.31-0.22,2.45-0.66,3.4c-0.44,0.96-1.06,1.69-1.84,2.19c-0.79,0.5-1.69,0.75-2.71,0.74
		C210.62,229.23,209.71,228.98,208.93,228.46z M214.09,226.22c0.57-0.83,0.87-1.95,0.88-3.37c-0.01-1.37-0.31-2.47-0.88-3.28
		c-0.57-0.81-1.4-1.22-2.47-1.22c-1.06,0-1.87,0.41-2.44,1.23c-0.57,0.82-0.86,1.92-0.87,3.31c0.01,1.4,0.3,2.51,0.87,3.34
		s1.38,1.24,2.44,1.24C212.69,227.47,213.51,227.06,214.09,226.22z"/>
	<path class="st0" d="M223.7,216.73v12.44h-1.85v-10.68h-1.42v-1.76H223.7z"/>
	<path class="st0" d="M234.89,217.35c0.68,0.37,1.22,0.89,1.61,1.55c0.39,0.66,0.59,1.42,0.59,2.26c0,1.22-0.29,2.33-0.88,3.33
		c-0.59,1-1.31,1.86-2.16,2.6c-0.86,0.74-1.91,1.52-3.16,2.33l-1.23-1.36c1.1-0.55,2.05-1.15,2.85-1.79
		c0.81-0.64,1.42-1.27,1.83-1.9c-0.59,0.48-1.37,0.72-2.33,0.72c-0.64,0-1.25-0.17-1.83-0.52c-0.57-0.35-1.04-0.82-1.39-1.42
		c-0.35-0.6-0.53-1.27-0.53-2.01c0-0.86,0.2-1.62,0.6-2.28s0.94-1.17,1.6-1.53c0.66-0.36,1.38-0.54,2.15-0.54
		C233.46,216.79,234.21,216.98,234.89,217.35z M230.89,222.84c0.48,0.47,1.09,0.7,1.8,0.7c0.73,0,1.33-0.22,1.81-0.65
		c0.47-0.43,0.71-0.99,0.71-1.65v-0.36c-0.03-0.67-0.28-1.24-0.76-1.71c-0.48-0.47-1.07-0.71-1.76-0.71c-0.72,0-1.32,0.24-1.8,0.72
		c-0.49,0.48-0.73,1.1-0.73,1.85C230.17,221.77,230.41,222.38,230.89,222.84z"/>
</g>
</svg>
