<!-- Generator: Adobe Illustrator 23.0.2, SVG Export Plug-In  -->
<svg version="1.1" xmlns="http://www.w3.org/2000/svg" xmlns:xlink="http://www.w3.org/1999/xlink" x="0px" y="0px"
	 width="361.97px" height="98.03px" viewBox="0 0 361.97 98.03" style="enable-background:new 0 0 361.97 98.03;"
	 xml:space="preserve">
<style type="text/css">
	.st0{fill:#FFFFFF;}
</style>
<defs>
</defs>
<g>
	<path class="st0" d="M68.39,11.78c-2.39,2.87-4.51,5.87-6.35,9.01c-1.84,3.14-3.55,6.28-5.11,9.44c-1.56,3.15-3.05,6.27-4.45,9.35
		c-1.41,3.08-2.87,6.01-4.39,8.78c-1.52,2.77-3.15,5.33-4.88,7.68c-1.73,2.35-3.7,4.38-5.91,6.1c-2.21,1.72-4.73,3.06-7.56,4.03
		c-2.83,0.97-6.07,1.46-9.73,1.46c-3.24,0-6.1-0.42-8.59-1.24c-2.49-0.83-4.58-1.97-6.27-3.42c-1.69-1.45-2.97-3.15-3.84-5.11
		C0.44,55.9,0,53.78,0,51.5c0-0.87,0.06-1.7,0.17-2.49c0.11-0.79,0.28-1.51,0.51-2.15l2.11,0.63c-0.17,0.56-0.31,1.19-0.42,1.88
		c-0.11,0.69-0.17,1.4-0.17,2.13c0,2.34,0.49,4.38,1.48,6.12c0.98,1.74,2.28,3.19,3.88,4.35c1.6,1.15,3.43,2.02,5.49,2.6
		c2.05,0.58,4.15,0.87,6.29,0.87c3.1,0,5.85-0.53,8.25-1.6c2.41-1.07,4.59-2.53,6.56-4.37c1.97-1.84,3.76-4,5.38-6.48
		c1.62-2.48,3.19-5.14,4.71-7.98c1.52-2.84,3.05-5.8,4.58-8.87c1.53-3.07,3.19-6.11,4.98-9.12c1.79-3.01,3.75-5.92,5.89-8.72
		c2.14-2.8,4.59-5.35,7.35-7.66L68.39,11.78z M98.03,1.86c-1.83,1.18-3.74,2.17-5.72,2.98c-1.98,0.8-4.03,1.44-6.14,1.92
		c-2.11,0.48-4.28,0.82-6.5,1.01c-2.22,0.2-4.47,0.3-6.75,0.3c-2.87,0-5.9-0.15-9.08-0.44c-3.18-0.3-6.34-0.61-9.48-0.95
		c-3.14-0.34-6.17-0.66-9.1-0.95c-2.93-0.3-5.57-0.44-7.94-0.44c-3.46,0-6.61,0.44-9.46,1.33c-2.84,0.89-5.28,2.14-7.3,3.76
		s-3.6,3.56-4.71,5.83c-1.11,2.27-1.67,4.79-1.67,7.58c0,1.94,0.33,3.69,0.99,5.26c0.66,1.56,1.6,2.88,2.83,3.95
		c1.22,1.07,2.69,1.89,4.41,2.47c1.72,0.58,3.62,0.87,5.7,0.87c1.8,0,3.66-0.22,5.57-0.65c1.91-0.44,3.8-1.09,5.66-1.96l0.89,1.73
		c-1.89,1.1-4.06,1.97-6.52,2.62c-2.46,0.65-4.95,0.97-7.45,0.97c-2.17,0-4.25-0.31-6.25-0.93c-2-0.62-3.78-1.55-5.34-2.81
		c-1.56-1.25-2.81-2.83-3.74-4.73c-0.93-1.9-1.39-4.13-1.39-6.69c0-2.53,0.38-4.81,1.14-6.82c0.76-2.01,1.8-3.8,3.12-5.36
		c1.32-1.56,2.87-2.89,4.64-3.99c1.77-1.1,3.68-2.01,5.72-2.72c2.04-0.72,4.16-1.24,6.35-1.56c2.2-0.32,4.38-0.49,6.54-0.49
		c2.59,0,5.37,0.15,8.34,0.46c2.97,0.31,6,0.64,9.1,0.99c3.1,0.35,6.21,0.68,9.33,0.99c3.12,0.31,6.15,0.46,9.08,0.46
		c2.2,0,4.36-0.09,6.5-0.27c2.14-0.18,4.21-0.5,6.23-0.95c2.01-0.45,3.95-1.05,5.83-1.79c1.87-0.75,3.67-1.68,5.38-2.81L98.03,1.86z
		"/>
	<path class="st0" d="M85.53,50.32c0.11,0.03,0.22,0.04,0.34,0.04c0.11,0,0.24,0,0.38,0c0.79,0,1.51-0.08,2.15-0.23
		c0.65-0.15,1.25-0.4,1.79-0.74c0.55-0.34,1.08-0.78,1.58-1.33c0.51-0.55,1-1.22,1.48-2.01l1.52,1.18
		c-1.35,1.91-2.74,3.25-4.18,4.01c-1.44,0.76-2.96,1.14-4.56,1.14c-0.59,0-1.11-0.06-1.56-0.17c-1.21,2.03-2.51,3.75-3.88,5.17
		c-1.38,1.42-2.79,2.58-4.22,3.48c-1.44,0.9-2.86,1.55-4.26,1.96c-1.41,0.41-2.72,0.61-3.93,0.61c-1.24,0-2.39-0.22-3.44-0.65
		c-1.06-0.44-1.96-1.06-2.72-1.88c-0.76-0.82-1.35-1.79-1.77-2.91c-0.42-1.13-0.63-2.39-0.63-3.8c0-1.41,0.23-2.84,0.68-4.31
		c0.45-1.46,1.06-2.91,1.84-4.35c0.77-1.44,1.68-2.82,2.72-4.16c1.04-1.34,2.17-2.58,3.38-3.74c1.21-1.15,2.46-2.2,3.76-3.12
		c1.29-0.93,2.59-1.69,3.88-2.28l1.35,1.77c-1.49,1.07-3,2.42-4.54,4.05c-1.53,1.63-2.93,3.42-4.18,5.36
		c-1.25,1.94-2.28,3.96-3.08,6.06c-0.8,2.1-1.2,4.13-1.2,6.1c0,1.77,0.39,3.15,1.18,4.12c0.79,0.97,1.98,1.46,3.59,1.46
		c1.24,0,2.46-0.25,3.67-0.76c1.21-0.51,2.39-1.2,3.55-2.07c1.15-0.87,2.27-1.91,3.34-3.1c1.07-1.2,2.08-2.47,3.04-3.82
		c-0.82-0.48-1.53-1.12-2.15-1.92c-0.62-0.8-1.14-1.72-1.56-2.74c-0.42-1.03-0.74-2.13-0.95-3.31c-0.21-1.18-0.32-2.39-0.32-3.63
		c0-1.24,0.15-2.41,0.46-3.5c0.31-1.1,0.74-2.06,1.29-2.89c0.55-0.83,1.19-1.48,1.92-1.96c0.73-0.48,1.53-0.72,2.41-0.72
		c0.79,0,1.49,0.2,2.11,0.61c0.62,0.41,1.14,0.97,1.56,1.69c0.42,0.72,0.75,1.57,0.97,2.55c0.22,0.99,0.34,2.04,0.34,3.17
		c0,0.84-0.07,1.77-0.21,2.79c-0.14,1.01-0.35,2.03-0.61,3.06c-0.27,1.03-0.59,2.04-0.97,3.04C86.48,48.64,86.04,49.53,85.53,50.32z
		 M79.79,39.81c0,0.82,0.07,1.7,0.21,2.66c0.14,0.96,0.37,1.89,0.68,2.79c0.31,0.9,0.7,1.74,1.18,2.51
		c0.48,0.77,1.07,1.39,1.77,1.84c0.51-0.98,0.94-1.99,1.29-3.02c0.35-1.03,0.65-2.02,0.89-2.98c0.24-0.96,0.41-1.85,0.51-2.68
		c0.1-0.83,0.15-1.55,0.15-2.17c0-0.84-0.07-1.62-0.21-2.32c-0.14-0.7-0.33-1.32-0.57-1.84c-0.24-0.52-0.54-0.93-0.89-1.22
		c-0.35-0.3-0.74-0.44-1.16-0.44c-0.56,0-1.08,0.19-1.56,0.57c-0.48,0.38-0.89,0.89-1.22,1.52c-0.34,0.63-0.6,1.37-0.78,2.2
		C79.88,38.04,79.79,38.91,79.79,39.81z"/>
	<path class="st0" d="M128.51,39.89c0,1.21-0.21,2.44-0.63,3.69c-0.42,1.25-0.96,2.51-1.6,3.76c-0.65,1.25-1.34,2.48-2.07,3.69
		c-0.73,1.21-1.42,2.38-2.07,3.5c-0.65,1.13-1.18,2.2-1.6,3.23c-0.42,1.03-0.63,1.96-0.63,2.81c0,0.65,0.14,1.08,0.42,1.31
		c0.28,0.22,0.59,0.34,0.93,0.34c1.07,0,2.27-0.53,3.59-1.58c1.32-1.05,2.67-2.38,4.03-3.99c1.37-1.6,2.72-3.35,4.07-5.23
		c1.35-1.89,2.58-3.67,3.67-5.36l1.52,1.18c-0.23,0.34-0.63,1.01-1.22,2.01c-0.59,1-1.32,2.14-2.2,3.42
		c-0.87,1.28-1.85,2.62-2.93,4.01c-1.08,1.39-2.24,2.67-3.48,3.84c-1.24,1.17-2.51,2.13-3.82,2.89c-1.31,0.76-2.62,1.14-3.95,1.14
		c-0.76,0-1.45-0.13-2.07-0.38c-0.62-0.25-1.15-0.61-1.58-1.06c-0.44-0.45-0.78-0.98-1.03-1.58s-0.38-1.25-0.38-1.92
		c0-1.1,0.25-2.29,0.74-3.57c0.49-1.28,1.1-2.6,1.84-3.95c0.73-1.35,1.53-2.71,2.41-4.07c0.87-1.36,1.67-2.67,2.41-3.9
		c0.73-1.24,1.34-2.39,1.84-3.44c0.49-1.06,0.74-1.96,0.74-2.72c0-0.87-0.23-1.6-0.7-2.2s-1.12-0.89-1.96-0.89
		c-0.9,0-1.94,0.37-3.12,1.12s-2.51,1.84-3.97,3.27c-1.46,1.44-3.06,3.2-4.79,5.3c-1.73,2.1-3.61,4.48-5.64,7.16
		c-1.15,1.55-2.28,3.04-3.38,4.48c-0.48,0.62-0.96,1.25-1.44,1.9c-0.48,0.65-0.96,1.29-1.44,1.92c-0.48,0.63-0.93,1.24-1.35,1.82
		c-0.42,0.58-0.8,1.08-1.14,1.5l-3.72-1.52l4.94-6.8c0.7-0.96,1.42-1.98,2.15-3.08c0.73-1.1,1.46-2.23,2.17-3.4
		c0.72-1.17,1.4-2.34,2.05-3.53c0.65-1.18,1.25-2.34,1.82-3.46c0.82-1.69,1.38-3.09,1.69-4.2c0.31-1.11,0.46-2.01,0.46-2.68
		c0-0.76-0.14-1.26-0.42-1.5c-0.28-0.24-0.68-0.36-1.18-0.36c-0.54,0-1.15,0.27-1.84,0.82c-0.69,0.55-1.4,1.25-2.13,2.11
		c-0.73,0.86-1.47,1.83-2.22,2.91c-0.75,1.08-1.46,2.16-2.13,3.23c-0.68,1.07-1.31,2.08-1.9,3.04c-0.59,0.96-1.08,1.73-1.48,2.32
		l-1.52-1.18c1.44-2.25,2.74-4.31,3.91-6.18c1.17-1.87,2.29-3.48,3.38-4.83c1.08-1.35,2.14-2.4,3.17-3.15
		c1.03-0.75,2.12-1.12,3.27-1.12c0.62,0,1.22,0.13,1.79,0.38c0.58,0.25,1.08,0.63,1.52,1.12c0.44,0.49,0.78,1.09,1.03,1.79
		c0.25,0.7,0.38,1.52,0.38,2.45c0,0.73-0.08,1.49-0.25,2.28c1.24-1.21,2.39-2.21,3.46-3c1.07-0.79,2.05-1.41,2.96-1.88
		c0.9-0.46,1.73-0.79,2.49-0.99c0.76-0.2,1.45-0.3,2.07-0.3c0.53,0,1.15,0.1,1.86,0.3c0.7,0.2,1.36,0.56,1.98,1.1
		c0.62,0.53,1.15,1.27,1.58,2.22C128.29,37.19,128.51,38.4,128.51,39.89z"/>
	<path class="st0" d="M154.6,33.86c-1.1,2-2.24,4.19-3.42,6.57c-1.18,2.38-2.37,4.85-3.57,7.41c-1.2,2.56-2.39,5.17-3.59,7.81
		c-1.2,2.65-2.37,5.23-3.53,7.77c2.65-1.46,4.97-2.93,6.99-4.39c2.01-1.46,3.78-2.92,5.3-4.37c1.52-1.45,2.84-2.89,3.97-4.33
		c1.13-1.44,2.14-2.86,3.04-4.26l1.52,1.18c-1.27,1.91-2.63,3.72-4.07,5.42c-1.45,1.7-3.08,3.36-4.88,4.96
		c-1.8,1.6-3.82,3.19-6.06,4.77c-2.24,1.58-4.75,3.19-7.54,4.86c-1.01,2.22-1.98,4.31-2.91,6.27c-0.93,1.96-1.8,3.72-2.62,5.3
		c-1.41,2.67-2.96,5.18-4.64,7.51c-1.69,2.34-3.41,4.37-5.17,6.1c-1.76,1.73-3.5,3.1-5.21,4.09c-1.72,1-3.31,1.5-4.77,1.5
		c-0.59,0-1.16-0.1-1.71-0.3c-0.55-0.2-1.05-0.49-1.5-0.89c-0.45-0.39-0.81-0.91-1.08-1.54c-0.27-0.63-0.4-1.4-0.4-2.3
		c0-2.36,0.57-4.7,1.71-7.01c1.14-2.31,2.79-4.57,4.94-6.78c2.15-2.21,4.8-4.36,7.94-6.46c3.14-2.1,6.71-4.1,10.7-6.02
		c0.93-1.91,1.79-3.7,2.58-5.36c0.79-1.66,1.59-3.29,2.41-4.9c0.82-1.6,1.67-3.22,2.55-4.83c0.89-1.62,1.89-3.36,3-5.21
		c1.11-1.86,2.36-3.87,3.76-6.04c1.39-2.17,3-4.59,4.83-7.26L154.6,33.86z M113.56,95.79c1.46,0,2.91-0.59,4.33-1.77
		c1.42-1.18,2.87-2.86,4.35-5.02c1.48-2.17,3.01-4.76,4.6-7.79c1.59-3.03,3.29-6.38,5.09-10.07l-1.82,0.97
		c-2.93,1.58-5.57,3.33-7.92,5.26c-2.35,1.93-4.34,3.86-5.97,5.8c-1.63,1.94-2.88,3.8-3.76,5.57c-0.87,1.77-1.31,3.26-1.31,4.48
		c0,0.73,0.19,1.34,0.57,1.84C112.11,95.54,112.72,95.79,113.56,95.79z"/>
	<path class="st0" d="M163,52.18c-0.06,0.34-0.1,0.68-0.13,1.01c-0.03,0.34-0.04,0.68-0.04,1.01c0,1.01,0.15,1.98,0.44,2.89
		c0.3,0.91,0.73,1.72,1.31,2.41c0.58,0.69,1.29,1.23,2.15,1.63c0.86,0.39,1.84,0.59,2.93,0.59c3.69,0,7.25-1.25,10.68-3.76
		c3.43-2.5,6.85-6.47,10.26-11.91l1.44,1.27c-1.86,3.1-3.74,5.71-5.66,7.83c-1.91,2.13-3.82,3.85-5.72,5.17
		c-1.9,1.32-3.76,2.28-5.59,2.87c-1.83,0.59-3.57,0.89-5.23,0.89c-1.21,0-2.49-0.17-3.84-0.51c-1.35-0.34-2.6-0.9-3.74-1.69
		c-1.14-0.79-2.08-1.84-2.83-3.17c-0.75-1.32-1.12-2.97-1.12-4.94c0-2.11,0.36-4.14,1.08-6.1c0.72-1.96,1.65-3.78,2.81-5.47
		c1.15-1.69,2.48-3.23,3.97-4.62c1.49-1.39,3-2.58,4.54-3.57c1.53-0.99,3.03-1.75,4.5-2.3c1.46-0.55,2.76-0.82,3.88-0.82
		c0.73,0,1.48,0.11,2.24,0.34c0.76,0.23,1.44,0.58,2.05,1.06c0.61,0.48,1.1,1.11,1.48,1.9c0.38,0.79,0.57,1.73,0.57,2.83
		c0,1.49-0.34,2.89-1.03,4.2c-0.69,1.31-1.61,2.52-2.76,3.63c-1.15,1.11-2.49,2.11-4.01,3c-1.52,0.89-3.11,1.64-4.77,2.26
		c-1.66,0.62-3.34,1.11-5.02,1.48C166.12,51.95,164.52,52.15,163,52.18z M163.34,50.36c1.89-0.2,3.66-0.59,5.32-1.18
		c1.66-0.59,3.18-1.32,4.56-2.17c1.38-0.86,2.61-1.79,3.69-2.81c1.08-1.01,1.99-2.04,2.72-3.08c0.73-1.04,1.29-2.04,1.69-3
		c0.39-0.96,0.59-1.82,0.59-2.58c0-0.76-0.2-1.36-0.61-1.82c-0.41-0.45-0.89-0.68-1.46-0.68c-1.24,0-2.63,0.44-4.18,1.33
		c-1.55,0.89-3.1,2.11-4.64,3.67c-1.55,1.56-3,3.4-4.37,5.51C165.29,45.68,164.18,47.94,163.34,50.36z"/>
	<path class="st0" d="M257.31,11.78c-2.39,2.87-4.51,5.87-6.35,9.01s-3.55,6.28-5.11,9.44c-1.56,3.15-3.05,6.27-4.45,9.35
		c-1.41,3.08-2.87,6.01-4.39,8.78c-1.52,2.77-3.15,5.33-4.88,7.68c-1.73,2.35-3.7,4.38-5.91,6.1c-2.21,1.72-4.73,3.06-7.56,4.03
		c-2.83,0.97-6.07,1.46-9.73,1.46c-3.24,0-6.1-0.42-8.59-1.24c-2.49-0.83-4.58-1.97-6.27-3.42c-1.69-1.45-2.97-3.15-3.84-5.11
		c-0.87-1.96-1.31-4.07-1.31-6.35c0-0.87,0.06-1.7,0.17-2.49c0.11-0.79,0.28-1.51,0.51-2.15l2.11,0.63
		c-0.17,0.56-0.31,1.19-0.42,1.88c-0.11,0.69-0.17,1.4-0.17,2.13c0,2.34,0.49,4.38,1.48,6.12c0.98,1.74,2.28,3.19,3.88,4.35
		c1.6,1.15,3.43,2.02,5.49,2.6c2.05,0.58,4.15,0.87,6.29,0.87c3.1,0,5.85-0.53,8.25-1.6c2.41-1.07,4.59-2.53,6.57-4.37
		c1.97-1.84,3.76-4,5.38-6.48c1.62-2.48,3.19-5.14,4.71-7.98c1.52-2.84,3.05-5.8,4.58-8.87c1.53-3.07,3.19-6.11,4.98-9.12
		c1.79-3.01,3.75-5.92,5.89-8.72c2.14-2.8,4.59-5.35,7.35-7.66L257.31,11.78z M286.95,1.86c-1.83,1.18-3.74,2.17-5.72,2.98
		c-1.98,0.8-4.03,1.44-6.14,1.92c-2.11,0.48-4.28,0.82-6.5,1.01c-2.22,0.2-4.48,0.3-6.75,0.3c-2.87,0-5.9-0.15-9.08-0.44
		c-3.18-0.3-6.34-0.61-9.48-0.95c-3.14-0.34-6.17-0.66-9.1-0.95c-2.93-0.3-5.57-0.44-7.94-0.44c-3.46,0-6.61,0.44-9.46,1.33
		c-2.84,0.89-5.28,2.14-7.3,3.76c-2.03,1.62-3.6,3.56-4.71,5.83c-1.11,2.27-1.67,4.79-1.67,7.58c0,1.94,0.33,3.69,0.99,5.26
		c0.66,1.56,1.6,2.88,2.83,3.95c1.22,1.07,2.69,1.89,4.41,2.47c1.72,0.58,3.62,0.87,5.7,0.87c1.8,0,3.66-0.22,5.57-0.65
		c1.91-0.44,3.8-1.09,5.66-1.96l0.89,1.73c-1.89,1.1-4.06,1.97-6.52,2.62c-2.46,0.65-4.95,0.97-7.45,0.97
		c-2.17,0-4.25-0.31-6.25-0.93c-2-0.62-3.78-1.55-5.34-2.81c-1.56-1.25-2.81-2.83-3.74-4.73c-0.93-1.9-1.39-4.13-1.39-6.69
		c0-2.53,0.38-4.81,1.14-6.82c0.76-2.01,1.8-3.8,3.12-5.36c1.32-1.56,2.87-2.89,4.64-3.99s3.68-2.01,5.72-2.72
		c2.04-0.72,4.16-1.24,6.35-1.56c2.2-0.32,4.38-0.49,6.54-0.49c2.59,0,5.37,0.15,8.34,0.46c2.97,0.31,6,0.64,9.1,0.99
		c3.1,0.35,6.21,0.68,9.33,0.99c3.12,0.31,6.15,0.46,9.08,0.46c2.2,0,4.36-0.09,6.5-0.27c2.14-0.18,4.21-0.5,6.23-0.95
		c2.01-0.45,3.95-1.05,5.83-1.79c1.87-0.75,3.67-1.68,5.38-2.81L286.95,1.86z"/>
	<path class="st0" d="M253.85,52.18c-0.06,0.34-0.1,0.68-0.13,1.01c-0.03,0.34-0.04,0.68-0.04,1.01c0,1.01,0.15,1.98,0.44,2.89
		c0.3,0.91,0.73,1.72,1.31,2.41c0.58,0.69,1.29,1.23,2.15,1.63c0.86,0.39,1.84,0.59,2.93,0.59c3.69,0,7.25-1.25,10.68-3.76
		c3.43-2.5,6.85-6.47,10.26-11.91l1.44,1.27c-1.86,3.1-3.74,5.71-5.66,7.83c-1.91,2.13-3.82,3.85-5.72,5.17
		c-1.9,1.32-3.76,2.28-5.59,2.87c-1.83,0.59-3.57,0.89-5.23,0.89c-1.21,0-2.49-0.17-3.84-0.51c-1.35-0.34-2.6-0.9-3.74-1.69
		c-1.14-0.79-2.08-1.84-2.83-3.17c-0.75-1.32-1.12-2.97-1.12-4.94c0-2.11,0.36-4.14,1.08-6.1c0.72-1.96,1.65-3.78,2.81-5.47
		c1.15-1.69,2.48-3.23,3.97-4.62c1.49-1.39,3-2.58,4.54-3.57c1.53-0.99,3.03-1.75,4.5-2.3c1.46-0.55,2.76-0.82,3.88-0.82
		c0.73,0,1.48,0.11,2.24,0.34c0.76,0.23,1.44,0.58,2.05,1.06c0.61,0.48,1.1,1.11,1.48,1.9c0.38,0.79,0.57,1.73,0.57,2.83
		c0,1.49-0.34,2.89-1.03,4.2c-0.69,1.31-1.61,2.52-2.76,3.63c-1.15,1.11-2.49,2.11-4.01,3c-1.52,0.89-3.11,1.64-4.77,2.26
		c-1.66,0.62-3.34,1.11-5.02,1.48C256.97,51.95,255.37,52.15,253.85,52.18z M254.19,50.36c1.89-0.2,3.66-0.59,5.32-1.18
		c1.66-0.59,3.18-1.32,4.56-2.17c1.38-0.86,2.61-1.79,3.69-2.81c1.08-1.01,1.99-2.04,2.72-3.08c0.73-1.04,1.29-2.04,1.69-3
		c0.39-0.96,0.59-1.82,0.59-2.58c0-0.76-0.2-1.36-0.61-1.82c-0.41-0.45-0.89-0.68-1.46-0.68c-1.24,0-2.63,0.44-4.18,1.33
		c-1.55,0.89-3.1,2.11-4.64,3.67c-1.55,1.56-3,3.4-4.37,5.51C256.14,45.68,255.03,47.94,254.19,50.36z"/>
	<path class="st0" d="M308.1,47.24c-0.42,0.62-0.92,1.46-1.5,2.51c-0.58,1.06-1.25,2.2-2.01,3.42c-0.76,1.22-1.6,2.47-2.51,3.74
		c-0.91,1.27-1.91,2.41-3,3.42c-1.08,1.01-2.26,1.84-3.53,2.49c-1.27,0.65-2.62,0.97-4.05,0.97c-0.79,0-1.53-0.12-2.24-0.36
		c-0.7-0.24-1.32-0.61-1.86-1.12c-0.54-0.51-0.96-1.13-1.27-1.88c-0.31-0.75-0.46-1.63-0.46-2.64c0-1.38,0.27-2.82,0.82-4.33
		c0.55-1.51,1.19-2.96,1.92-4.37c0.73-1.41,1.46-2.69,2.2-3.86c0.73-1.17,1.27-2.1,1.6-2.81c0.34-0.7,0.51-1.31,0.51-1.82
		c0-0.36-0.12-0.69-0.36-0.97c-0.24-0.28-0.53-0.56-0.89-0.82c-0.35-0.27-0.72-0.55-1.1-0.84c-0.38-0.3-0.7-0.65-0.95-1.08
		c-0.7,1.13-1.42,2.27-2.15,3.42c-0.65,0.99-1.35,2.09-2.11,3.31c-0.76,1.22-1.49,2.43-2.2,3.61l-1.52-1.18l9.03-14.14l1.22,0.63
		c-0.06,0.17-0.15,0.44-0.27,0.8c-0.13,0.37-0.19,0.76-0.19,1.18c0,0.31,0.05,0.61,0.15,0.91c0.1,0.3,0.3,0.57,0.61,0.82
		c1.13,1.01,2.01,1.79,2.66,2.34c0.65,0.55,1.12,0.99,1.41,1.31c0.3,0.32,0.48,0.59,0.55,0.8c0.07,0.21,0.11,0.49,0.11,0.82
		c0,0.34-0.06,0.75-0.17,1.22c-0.11,0.48-0.3,1.06-0.57,1.73c-0.27,0.68-0.63,1.47-1.1,2.39c-0.46,0.91-1.05,1.98-1.75,3.19
		c-0.42,0.73-0.84,1.47-1.25,2.22c-0.41,0.75-0.77,1.5-1.1,2.26c-0.32,0.76-0.58,1.52-0.78,2.28c-0.2,0.76-0.3,1.49-0.3,2.2
		c0,0.53,0.08,0.96,0.23,1.29c0.15,0.32,0.36,0.57,0.61,0.74c0.25,0.17,0.53,0.28,0.82,0.34c0.3,0.06,0.58,0.08,0.87,0.08
		c0.93,0,1.85-0.27,2.77-0.82c0.91-0.55,1.82-1.26,2.7-2.13c0.89-0.87,1.74-1.86,2.58-2.98c0.83-1.11,1.63-2.24,2.39-3.4
		c0.76-1.15,1.46-2.26,2.11-3.31c0.65-1.05,1.22-1.98,1.73-2.76L308.1,47.24z"/>
	<path class="st0" d="M324.52,33.86c-1.1,2-2.24,4.19-3.42,6.57c-1.18,2.38-2.37,4.85-3.57,7.41c-1.2,2.56-2.39,5.17-3.59,7.81
		c-1.2,2.65-2.37,5.23-3.53,7.77c2.65-1.46,4.97-2.93,6.99-4.39c2.01-1.46,3.78-2.92,5.3-4.37c1.52-1.45,2.84-2.89,3.97-4.33
		c1.13-1.44,2.14-2.86,3.04-4.26l1.52,1.18c-1.27,1.91-2.63,3.72-4.07,5.42c-1.45,1.7-3.08,3.36-4.88,4.96
		c-1.8,1.6-3.82,3.19-6.06,4.77c-2.24,1.58-4.75,3.19-7.54,4.86c-1.01,2.22-1.98,4.31-2.91,6.27c-0.93,1.96-1.8,3.72-2.62,5.3
		c-1.41,2.67-2.96,5.18-4.64,7.51c-1.69,2.34-3.41,4.37-5.17,6.1c-1.76,1.73-3.5,3.1-5.21,4.09c-1.72,1-3.31,1.5-4.77,1.5
		c-0.59,0-1.16-0.1-1.71-0.3c-0.55-0.2-1.05-0.49-1.5-0.89c-0.45-0.39-0.81-0.91-1.08-1.54c-0.27-0.63-0.4-1.4-0.4-2.3
		c0-2.36,0.57-4.7,1.71-7.01c1.14-2.31,2.79-4.57,4.94-6.78c2.15-2.21,4.8-4.36,7.94-6.46c3.14-2.1,6.71-4.1,10.7-6.02
		c0.93-1.91,1.79-3.7,2.58-5.36c0.79-1.66,1.59-3.29,2.41-4.9c0.82-1.6,1.67-3.22,2.55-4.83c0.89-1.62,1.89-3.36,3-5.21
		c1.11-1.86,2.36-3.87,3.76-6.04c1.39-2.17,3-4.59,4.83-7.26L324.52,33.86z M283.49,95.79c1.46,0,2.91-0.59,4.33-1.77
		c1.42-1.18,2.87-2.86,4.35-5.02c1.48-2.17,3.01-4.76,4.6-7.79c1.59-3.03,3.29-6.38,5.09-10.07l-1.82,0.97
		c-2.93,1.58-5.57,3.33-7.92,5.26c-2.35,1.93-4.34,3.86-5.97,5.8c-1.63,1.94-2.88,3.8-3.76,5.57c-0.87,1.77-1.31,3.26-1.31,4.48
		c0,0.73,0.19,1.34,0.57,1.84C282.03,95.54,282.64,95.79,283.49,95.79z M330.39,26.55c-0.56,0.82-1.18,1.49-1.86,2.03
		c-0.68,0.53-1.31,0.8-1.9,0.8c-0.48,0-0.84-0.18-1.1-0.53c-0.25-0.35-0.38-0.77-0.38-1.25c0-0.45,0.1-0.98,0.3-1.6
		c0.2-0.62,0.47-1.21,0.82-1.77c0.35-0.56,0.77-1.04,1.25-1.44c0.48-0.39,0.99-0.59,1.52-0.59c0.62,0,1.13,0.23,1.54,0.68
		c0.41,0.45,0.61,0.93,0.61,1.44C331.19,25.02,330.92,25.77,330.39,26.55z"/>
	<path class="st0" d="M332.92,52.18c-0.06,0.34-0.1,0.68-0.13,1.01c-0.03,0.34-0.04,0.68-0.04,1.01c0,1.01,0.15,1.98,0.44,2.89
		c0.3,0.91,0.73,1.72,1.31,2.41c0.58,0.69,1.29,1.23,2.15,1.63c0.86,0.39,1.84,0.59,2.93,0.59c3.69,0,7.25-1.25,10.68-3.76
		c3.43-2.5,6.85-6.47,10.26-11.91l1.44,1.27c-1.86,3.1-3.74,5.71-5.66,7.83c-1.91,2.13-3.82,3.85-5.72,5.17
		c-1.9,1.32-3.76,2.28-5.59,2.87c-1.83,0.59-3.57,0.89-5.23,0.89c-1.21,0-2.49-0.17-3.84-0.51c-1.35-0.34-2.6-0.9-3.74-1.69
		c-1.14-0.79-2.08-1.84-2.83-3.17c-0.75-1.32-1.12-2.97-1.12-4.94c0-2.11,0.36-4.14,1.08-6.1c0.72-1.96,1.65-3.78,2.81-5.47
		c1.15-1.69,2.48-3.23,3.97-4.62c1.49-1.39,3-2.58,4.54-3.57c1.53-0.99,3.03-1.75,4.5-2.3c1.46-0.55,2.76-0.82,3.88-0.82
		c0.73,0,1.48,0.11,2.24,0.34c0.76,0.23,1.44,0.58,2.05,1.06c0.61,0.48,1.1,1.11,1.48,1.9c0.38,0.79,0.57,1.73,0.57,2.83
		c0,1.49-0.34,2.89-1.03,4.2c-0.69,1.31-1.61,2.52-2.76,3.63c-1.15,1.11-2.49,2.11-4.01,3c-1.52,0.89-3.11,1.64-4.77,2.26
		c-1.66,0.62-3.34,1.11-5.02,1.48C336.05,51.95,334.44,52.15,332.92,52.18z M333.26,50.36c1.89-0.2,3.66-0.59,5.32-1.18
		c1.66-0.59,3.18-1.32,4.56-2.17c1.38-0.86,2.61-1.79,3.69-2.81c1.08-1.01,1.99-2.04,2.72-3.08c0.73-1.04,1.29-2.04,1.69-3
		c0.39-0.96,0.59-1.82,0.59-2.58c0-0.76-0.2-1.36-0.61-1.82c-0.41-0.45-0.89-0.68-1.46-0.68c-1.24,0-2.63,0.44-4.18,1.33
		c-1.55,0.89-3.1,2.11-4.64,3.67c-1.55,1.56-3,3.4-4.37,5.51C335.21,45.68,334.1,47.94,333.26,50.36z"/>
</g>
<g>
	<path class="st0" d="M160.65,31.45c-0.1-0.13-0.15-0.27-0.15-0.4s0.1-0.3,0.31-0.48c0.21-0.19,0.45-0.4,0.75-0.64
		c0.29-0.24,0.59-0.51,0.88-0.83c0.71-0.73,1.06-1.69,1.06-2.86c0-0.62-0.18-1.32-0.54-2.12c-0.12-0.25-0.29-0.6-0.52-1.06
		c-1.07,0.71-2.08,1.26-3.02,1.66c-0.95,0.4-1.87,0.6-2.78,0.6c-0.91,0-1.74-0.16-2.5-0.49s-1.38-0.83-1.88-1.49
		s-0.75-1.43-0.75-2.31c0-1.12,0.32-2.1,0.95-2.95c0.49-0.66,0.93-1.15,1.32-1.47s0.7-0.57,0.92-0.74c0.22-0.17,0.52-0.38,0.92-0.62
		c0.61-0.39,1.13-0.7,1.56-0.96s0.71-0.41,0.82-0.49c-0.24-0.9-0.36-1.63-0.36-2.2c0-0.92,0.3-1.8,0.91-2.64s1.37-1.5,2.28-1.99
		c0.91-0.49,1.82-0.73,2.73-0.73c1.05,0,2.03,0.28,2.95,0.85c0.44,0.27,0.8,0.63,1.08,1.08S168,9.12,168,9.66
		c0,0.4-0.44,0.83-1.33,1.29c-0.63,0.33-1.28,0.63-1.95,0.9c-0.67,0.27-1.05,0.43-1.16,0.48c-0.18-0.2-0.3-0.43-0.36-0.7
		c0.08-0.05,0.29-0.15,0.62-0.3s0.62-0.28,0.86-0.41c0.24-0.12,0.46-0.28,0.68-0.47s0.32-0.38,0.32-0.57c0-0.61-0.24-1.11-0.72-1.52
		c-0.48-0.4-0.98-0.6-1.51-0.6s-0.96,0.09-1.3,0.27c-0.34,0.18-0.6,0.43-0.78,0.74c-0.37,0.62-0.55,1.26-0.55,1.94
		s0.07,1.29,0.2,1.84s0.29,1.05,0.46,1.5s0.42,0.97,0.74,1.58c0.32,0.6,0.59,1.08,0.81,1.44s0.52,0.84,0.91,1.46
		c0.39,0.61,0.65,1.04,0.8,1.29c0.62-0.39,1.23-0.96,1.84-1.71c0.61-0.74,1.11-1.47,1.49-2.18c0.1-0.18,0.22-0.68,0.37-1.51
		c0.15-0.83,0.31-1.31,0.49-1.45l0.48-0.02c0.03,0,0.04,0,0.06,0c0.31,0,0.47,0.18,0.47,0.53c0,0.67-0.23,1.52-0.68,2.53
		c-0.46,1.01-1.04,1.98-1.76,2.9c-0.72,0.92-1.42,1.6-2.1,2.02c0.35,0.51,0.64,1.09,0.89,1.75c0.25,0.66,0.37,1.25,0.37,1.79
		c0,0.98-0.28,2.01-0.83,3.09s-1.3,2-2.25,2.76C162.63,31.07,161.65,31.45,160.65,31.45z M161.88,22.03l-3.61-6.99
		c-1.69,0.99-2.73,1.92-3.13,2.79c-0.18,0.4-0.27,0.83-0.27,1.28c0,1.07,0.4,2.01,1.2,2.84s1.73,1.23,2.8,1.23
		c0.51,0,0.99-0.09,1.44-0.28C160.75,22.71,161.28,22.42,161.88,22.03z"/>
</g>
</svg>
