<svg version="1.1" xmlns="http://www.w3.org/2000/svg" xmlns:xlink="http://www.w3.org/1999/xlink" x="0px" y="0px"
	 width="772.03px" height="160.27px" viewBox="0 0 772.03 160.27" style="enable-background:new 0 0 772.03 160.27;"
	 xml:space="preserve">
<style type="text/css">
	.st0{fill:#FFFFFF;}
</style>
<defs>
</defs>
<g>
	<path class="st0" d="M109.28,18.82c-3.82,4.59-7.21,9.39-10.15,14.4c-2.95,5.01-5.67,10.04-8.16,15.08
		c-2.5,5.04-4.87,10.02-7.12,14.94c-2.25,4.92-4.59,9.6-7.02,14.03c-2.43,4.43-5.03,8.52-7.79,12.28c-2.77,3.76-5.91,7-9.44,9.75
		c-3.53,2.74-7.56,4.89-12.07,6.44c-4.52,1.55-9.7,2.33-15.55,2.33c-5.17,0-9.75-0.66-13.73-1.99c-3.98-1.33-7.32-3.15-10.02-5.46
		c-2.7-2.32-4.75-5.04-6.14-8.16C0.7,89.32,0,85.94,0,82.3c0-1.39,0.09-2.72,0.27-3.98c0.18-1.26,0.45-2.41,0.81-3.44l3.37,1.01
		c-0.27,0.9-0.5,1.9-0.67,3c-0.18,1.1-0.27,2.24-0.27,3.41c0,3.73,0.79,6.99,2.36,9.78c1.57,2.79,3.64,5.1,6.21,6.95
		c2.56,1.84,5.49,3.23,8.77,4.15c3.28,0.92,6.63,1.38,10.05,1.38c4.95,0,9.34-0.85,13.19-2.56c3.84-1.71,7.34-4.04,10.49-6.98
		c3.15-2.94,6.01-6.4,8.6-10.35c2.59-3.96,5.09-8.21,7.52-12.75c2.43-4.54,4.87-9.26,7.32-14.17c2.45-4.9,5.1-9.76,7.96-14.57
		c2.85-4.81,5.99-9.46,9.41-13.93c3.42-4.47,7.33-8.56,11.74-12.24L109.28,18.82z M156.63,2.97c-2.92,1.89-5.97,3.47-9.14,4.76
		s-6.44,2.31-9.81,3.07c-3.37,0.77-6.84,1.3-10.39,1.62c-3.55,0.32-7.15,0.47-10.79,0.47c-4.59,0-9.42-0.24-14.5-0.71
		c-5.08-0.47-10.13-0.98-15.14-1.52c-5.02-0.54-9.86-1.05-14.54-1.52c-4.68-0.47-8.9-0.71-12.68-0.71c-5.53,0-10.57,0.71-15.11,2.12
		c-4.54,1.42-8.43,3.42-11.67,6c-3.24,2.59-5.75,5.69-7.52,9.31c-1.78,3.62-2.66,7.66-2.66,12.11c0,3.1,0.53,5.9,1.59,8.4
		c1.06,2.5,2.56,4.6,4.52,6.31s4.31,3.02,7.05,3.95c2.74,0.92,5.78,1.38,9.11,1.38c2.88,0,5.85-0.35,8.9-1.05
		c3.06-0.7,6.07-1.74,9.04-3.14l1.42,2.77c-3.01,1.75-6.49,3.15-10.42,4.18c-3.94,1.04-7.9,1.55-11.91,1.55
		c-3.46,0-6.79-0.5-9.98-1.48c-3.19-0.99-6.04-2.48-8.53-4.49c-2.5-2-4.49-4.52-5.97-7.55c-1.48-3.04-2.23-6.6-2.23-10.69
		c0-4.05,0.61-7.68,1.82-10.89c1.21-3.21,2.88-6.07,4.99-8.57c2.11-2.5,4.59-4.62,7.42-6.37c2.83-1.75,5.88-3.2,9.14-4.35
		c3.26-1.15,6.64-1.98,10.15-2.5c3.51-0.52,6.99-0.78,10.46-0.78c4.14,0,8.58,0.25,13.32,0.74c4.74,0.5,9.59,1.02,14.54,1.58
		c4.95,0.56,9.92,1.09,14.91,1.59c4.99,0.5,9.83,0.74,14.5,0.74c3.51,0,6.97-0.15,10.39-0.44c3.42-0.29,6.73-0.8,9.95-1.52
		c3.21-0.72,6.32-1.67,9.31-2.87c2.99-1.19,5.86-2.69,8.6-4.49L156.63,2.97z"/>
	<path class="st0" d="M136.67,80.41c0.18,0.04,0.36,0.07,0.54,0.07c0.18,0,0.38,0,0.61,0c1.26,0,2.41-0.12,3.44-0.37
		c1.03-0.25,1.99-0.64,2.87-1.18s1.72-1.25,2.53-2.13c0.81-0.88,1.6-1.94,2.36-3.2l2.43,1.89c-2.16,3.06-4.38,5.19-6.68,6.41
		c-2.29,1.21-4.72,1.82-7.29,1.82c-0.94,0-1.78-0.09-2.5-0.27c-1.93,3.24-4,5.99-6.21,8.26c-2.2,2.27-4.45,4.13-6.75,5.56
		c-2.29,1.44-4.56,2.48-6.81,3.14c-2.25,0.65-4.34,0.98-6.27,0.98c-1.98,0-3.81-0.35-5.5-1.05c-1.69-0.7-3.14-1.7-4.35-3
		c-1.21-1.3-2.16-2.85-2.83-4.65c-0.67-1.8-1.01-3.82-1.01-6.07s0.36-4.54,1.08-6.88c0.72-2.34,1.7-4.65,2.93-6.95
		c1.24-2.29,2.69-4.51,4.35-6.64c1.66-2.13,3.46-4.13,5.4-5.97c1.93-1.84,3.93-3.51,6-4.99c2.07-1.48,4.14-2.7,6.21-3.64l2.16,2.83
		c-2.38,1.71-4.8,3.87-7.25,6.48c-2.45,2.61-4.68,5.46-6.68,8.57c-2,3.1-3.64,6.33-4.92,9.68c-1.28,3.35-1.92,6.6-1.92,9.75
		c0,2.83,0.63,5.03,1.89,6.58c1.26,1.55,3.17,2.33,5.73,2.33c1.98,0,3.93-0.41,5.87-1.21c1.93-0.81,3.82-1.91,5.67-3.31
		c1.84-1.39,3.62-3.05,5.33-4.96c1.71-1.91,3.33-3.95,4.86-6.1c-1.3-0.76-2.45-1.79-3.44-3.07c-0.99-1.28-1.82-2.74-2.5-4.38
		c-0.67-1.64-1.18-3.41-1.52-5.3c-0.34-1.89-0.51-3.82-0.51-5.8c0-1.98,0.25-3.84,0.74-5.6c0.49-1.75,1.18-3.29,2.06-4.62
		c0.88-1.33,1.9-2.37,3.07-3.14c1.17-0.76,2.45-1.15,3.85-1.15c1.26,0,2.38,0.33,3.37,0.98c0.99,0.65,1.82,1.55,2.5,2.7
		c0.67,1.15,1.19,2.51,1.55,4.08c0.36,1.57,0.54,3.26,0.54,5.06c0,1.35-0.11,2.83-0.34,4.45c-0.23,1.62-0.55,3.25-0.98,4.89
		c-0.43,1.64-0.94,3.26-1.55,4.86C138.18,77.72,137.48,79.15,136.67,80.41z M127.49,63.61c0,1.3,0.11,2.72,0.34,4.25
		c0.22,1.53,0.58,3.01,1.08,4.45c0.49,1.44,1.12,2.78,1.89,4.01c0.76,1.24,1.71,2.21,2.83,2.93c0.81-1.57,1.49-3.18,2.06-4.82
		c0.56-1.64,1.03-3.23,1.42-4.76c0.38-1.53,0.65-2.96,0.81-4.28c0.16-1.33,0.24-2.48,0.24-3.47c0-1.35-0.11-2.58-0.34-3.71
		c-0.23-1.12-0.53-2.1-0.91-2.93c-0.38-0.83-0.85-1.48-1.42-1.96c-0.56-0.47-1.18-0.71-1.85-0.71c-0.9,0-1.73,0.3-2.5,0.91
		c-0.77,0.61-1.42,1.42-1.96,2.43s-0.96,2.18-1.25,3.51C127.64,60.79,127.49,62.17,127.49,63.61z"/>
	<path class="st0" d="M205.33,63.75c0,1.93-0.34,3.9-1.01,5.9c-0.67,2-1.53,4-2.56,6c-1.04,2-2.14,3.97-3.3,5.9
		c-1.17,1.93-2.27,3.8-3.31,5.6c-1.04,1.8-1.89,3.52-2.56,5.16c-0.67,1.64-1.01,3.14-1.01,4.49c0,1.04,0.22,1.73,0.67,2.09
		s0.95,0.54,1.48,0.54c1.71,0,3.62-0.84,5.73-2.53c2.11-1.69,4.26-3.81,6.44-6.37s4.35-5.35,6.51-8.36s4.12-5.87,5.87-8.57
		l2.43,1.89c-0.36,0.54-1.01,1.61-1.96,3.2c-0.94,1.6-2.11,3.42-3.51,5.46c-1.39,2.05-2.96,4.18-4.69,6.41
		c-1.73,2.23-3.59,4.27-5.56,6.14c-1.98,1.87-4.01,3.41-6.11,4.62c-2.09,1.21-4.19,1.82-6.31,1.82c-1.21,0-2.32-0.2-3.3-0.61
		c-0.99-0.4-1.83-0.97-2.53-1.69c-0.7-0.72-1.25-1.56-1.65-2.53s-0.61-1.99-0.61-3.07c0-1.75,0.39-3.65,1.18-5.7
		c0.79-2.05,1.76-4.15,2.93-6.31c1.17-2.16,2.45-4.33,3.85-6.51c1.39-2.18,2.67-4.26,3.84-6.24c1.17-1.98,2.15-3.81,2.94-5.5
		c0.79-1.69,1.18-3.14,1.18-4.35c0-1.39-0.37-2.56-1.11-3.51s-1.79-1.42-3.14-1.42c-1.44,0-3.1,0.6-4.99,1.79s-4,2.93-6.34,5.23
		s-4.89,5.12-7.66,8.47c-2.77,3.35-5.77,7.16-9,11.43c-1.84,2.47-3.64,4.86-5.4,7.15c-0.77,0.99-1.53,2-2.29,3.04
		c-0.77,1.04-1.53,2.06-2.29,3.07c-0.77,1.01-1.48,1.98-2.16,2.9c-0.67,0.92-1.28,1.72-1.82,2.39l-5.94-2.43l7.89-10.86
		c1.12-1.53,2.27-3.17,3.44-4.92c1.17-1.75,2.33-3.56,3.47-5.43c1.15-1.87,2.24-3.74,3.27-5.63c1.03-1.89,2-3.73,2.9-5.53
		c1.3-2.7,2.2-4.93,2.7-6.71c0.5-1.78,0.74-3.2,0.74-4.28c0-1.21-0.22-2.01-0.67-2.39c-0.45-0.38-1.08-0.57-1.89-0.57
		c-0.86,0-1.83,0.44-2.93,1.32c-1.1,0.88-2.24,2-3.41,3.37c-1.17,1.37-2.35,2.92-3.54,4.65c-1.19,1.73-2.33,3.45-3.41,5.16
		c-1.08,1.71-2.09,3.33-3.04,4.86c-0.94,1.53-1.73,2.77-2.36,3.71l-2.43-1.89c2.29-3.6,4.37-6.89,6.24-9.88
		c1.87-2.99,3.66-5.57,5.4-7.72c1.73-2.16,3.42-3.83,5.06-5.03c1.64-1.19,3.38-1.79,5.23-1.79c0.99,0,1.95,0.2,2.87,0.61
		c0.92,0.4,1.73,1,2.43,1.79c0.7,0.79,1.25,1.74,1.65,2.87s0.61,2.43,0.61,3.91c0,1.17-0.13,2.38-0.41,3.64
		c1.98-1.93,3.82-3.53,5.53-4.79c1.71-1.26,3.28-2.26,4.72-3s2.77-1.27,3.98-1.58c1.21-0.31,2.31-0.47,3.3-0.47
		c0.85,0,1.84,0.16,2.97,0.47c1.12,0.32,2.18,0.9,3.17,1.75c0.99,0.85,1.83,2.04,2.53,3.54C204.99,59.42,205.33,61.36,205.33,63.75z
		"/>
	<path class="st0" d="M247.02,54.1c-1.75,3.19-3.58,6.69-5.46,10.49c-1.89,3.8-3.79,7.75-5.7,11.84c-1.91,4.09-3.82,8.25-5.73,12.48
		c-1.91,4.23-3.79,8.36-5.63,12.41c4.23-2.34,7.95-4.68,11.16-7.02c3.21-2.34,6.04-4.67,8.47-6.98c2.43-2.32,4.54-4.62,6.34-6.91
		c1.8-2.29,3.42-4.56,4.86-6.81l2.43,1.89c-2.02,3.06-4.19,5.95-6.51,8.67c-2.32,2.72-4.91,5.36-7.79,7.93
		c-2.88,2.56-6.1,5.1-9.68,7.62s-7.59,5.1-12.04,7.76c-1.62,3.55-3.17,6.89-4.65,10.02c-1.48,3.13-2.88,5.95-4.18,8.47
		c-2.25,4.27-4.72,8.27-7.42,12.01s-5.45,6.98-8.26,9.75c-2.81,2.77-5.59,4.95-8.33,6.54c-2.74,1.6-5.28,2.39-7.62,2.39
		c-0.94,0-1.86-0.16-2.73-0.47c-0.88-0.32-1.67-0.79-2.39-1.42c-0.72-0.63-1.29-1.45-1.72-2.46c-0.43-1.01-0.64-2.24-0.64-3.68
		c0-3.78,0.91-7.51,2.73-11.2c1.82-3.69,4.45-7.3,7.89-10.83s7.67-6.97,12.68-10.32c5.01-3.35,10.71-6.55,17.1-9.61
		c1.48-3.06,2.86-5.91,4.12-8.57c1.26-2.65,2.54-5.26,3.84-7.82c1.3-2.56,2.67-5.14,4.08-7.72c1.42-2.59,3.01-5.36,4.79-8.33
		c1.78-2.97,3.78-6.18,6-9.65c2.23-3.46,4.8-7.33,7.72-11.6L247.02,54.1z M181.46,153.06c2.34,0,4.64-0.94,6.91-2.83
		c2.27-1.89,4.59-4.56,6.95-8.03s4.81-7.61,7.35-12.45c2.54-4.83,5.25-10.2,8.13-16.09l-2.9,1.55c-4.68,2.52-8.89,5.32-12.65,8.4
		c-3.75,3.08-6.94,6.17-9.54,9.28c-2.61,3.1-4.61,6.07-6,8.9c-1.39,2.83-2.09,5.22-2.09,7.15c0,1.17,0.3,2.15,0.91,2.93
		C179.13,152.66,180.11,153.06,181.46,153.06z M256.4,42.43c-0.9,1.3-1.89,2.38-2.97,3.24c-1.08,0.85-2.09,1.28-3.04,1.28
		c-0.77,0-1.35-0.28-1.75-0.84c-0.41-0.56-0.61-1.22-0.61-1.99c0-0.72,0.16-1.57,0.47-2.56c0.31-0.99,0.75-1.93,1.31-2.83
		c0.56-0.9,1.23-1.66,1.99-2.29c0.76-0.63,1.57-0.94,2.43-0.94c0.99,0,1.81,0.36,2.46,1.08c0.65,0.72,0.98,1.48,0.98,2.29
		C257.68,39.98,257.25,41.17,256.4,42.43z"/>
	<path class="st0" d="M260.45,83.38c-0.09,0.54-0.16,1.08-0.2,1.62c-0.04,0.54-0.07,1.08-0.07,1.62c0,1.62,0.24,3.16,0.71,4.62
		c0.47,1.46,1.17,2.74,2.09,3.84c0.92,1.1,2.07,1.97,3.44,2.6c1.37,0.63,2.93,0.94,4.69,0.94c5.89,0,11.58-2,17.07-6
		c5.49-4,10.95-10.34,16.39-19.02l2.29,2.02c-2.97,4.95-5.98,9.12-9.04,12.51c-3.06,3.4-6.1,6.15-9.14,8.26
		c-3.04,2.11-6.02,3.64-8.94,4.59c-2.92,0.95-5.71,1.42-8.36,1.42c-1.93,0-3.98-0.27-6.14-0.81c-2.16-0.54-4.15-1.44-5.97-2.7
		s-3.33-2.94-4.52-5.06c-1.19-2.11-1.79-4.74-1.79-7.89c0-3.37,0.57-6.62,1.72-9.75c1.15-3.13,2.64-6.04,4.49-8.74
		s3.96-5.16,6.34-7.39c2.38-2.23,4.8-4.13,7.25-5.7c2.45-1.57,4.84-2.8,7.18-3.68c2.34-0.88,4.41-1.32,6.21-1.32
		c1.17,0,2.36,0.18,3.58,0.54c1.21,0.36,2.3,0.92,3.27,1.69s1.75,1.78,2.36,3.04c0.61,1.26,0.91,2.77,0.91,4.52
		c0,2.38-0.55,4.62-1.65,6.71c-1.1,2.09-2.58,4.03-4.42,5.8c-1.84,1.78-3.98,3.37-6.41,4.79c-2.43,1.42-4.97,2.62-7.62,3.61
		c-2.65,0.99-5.33,1.78-8.03,2.36C265.44,83.02,262.88,83.33,260.45,83.38z M260.99,80.48c3.01-0.31,5.85-0.94,8.5-1.89
		c2.65-0.94,5.08-2.1,7.29-3.47c2.2-1.37,4.17-2.87,5.9-4.49c1.73-1.62,3.18-3.26,4.35-4.92c1.17-1.66,2.07-3.26,2.7-4.79
		c0.63-1.53,0.94-2.9,0.94-4.12c0-1.21-0.33-2.18-0.98-2.9c-0.65-0.72-1.43-1.08-2.33-1.08c-1.98,0-4.21,0.71-6.68,2.13
		c-2.47,1.42-4.95,3.37-7.42,5.87c-2.47,2.5-4.8,5.43-6.98,8.8C264.1,72.99,262.34,76.61,260.99,80.48z"/>
	<path class="st0" d="M383.08,80.41c0.18,0.04,0.36,0.07,0.54,0.07c0.18,0,0.38,0,0.61,0c1.26,0,2.41-0.12,3.44-0.37
		c1.03-0.25,1.99-0.64,2.87-1.18s1.72-1.25,2.53-2.13s1.6-1.94,2.36-3.2l2.43,1.89c-2.16,3.06-4.38,5.19-6.68,6.41
		c-2.29,1.21-4.72,1.82-7.29,1.82c-0.94,0-1.78-0.09-2.5-0.27c-1.93,3.24-4,5.99-6.21,8.26c-2.2,2.27-4.45,4.13-6.75,5.56
		c-2.29,1.44-4.56,2.48-6.81,3.14c-2.25,0.65-4.34,0.98-6.27,0.98c-1.98,0-3.81-0.35-5.5-1.05s-3.14-1.7-4.35-3
		c-1.21-1.3-2.16-2.85-2.83-4.65c-0.67-1.8-1.01-3.82-1.01-6.07s0.36-4.54,1.08-6.88c0.72-2.34,1.7-4.65,2.93-6.95
		c1.24-2.29,2.69-4.51,4.35-6.64c1.66-2.13,3.46-4.13,5.4-5.97c1.93-1.84,3.93-3.51,6-4.99c2.07-1.48,4.14-2.7,6.21-3.64l2.16,2.83
		c-2.38,1.71-4.8,3.87-7.25,6.48c-2.45,2.61-4.68,5.46-6.68,8.57c-2,3.1-3.64,6.33-4.92,9.68c-1.28,3.35-1.92,6.6-1.92,9.75
		c0,2.83,0.63,5.03,1.89,6.58c1.26,1.55,3.17,2.33,5.73,2.33c1.98,0,3.93-0.41,5.87-1.21c1.93-0.81,3.82-1.91,5.67-3.31
		c1.84-1.39,3.62-3.05,5.33-4.96c1.71-1.91,3.33-3.95,4.86-6.1c-1.3-0.76-2.45-1.79-3.44-3.07c-0.99-1.28-1.82-2.74-2.5-4.38
		c-0.67-1.64-1.18-3.41-1.52-5.3c-0.34-1.89-0.51-3.82-0.51-5.8c0-1.98,0.25-3.84,0.74-5.6c0.49-1.75,1.18-3.29,2.06-4.62
		c0.88-1.33,1.9-2.37,3.07-3.14c1.17-0.76,2.45-1.15,3.84-1.15c1.26,0,2.38,0.33,3.37,0.98c0.99,0.65,1.82,1.55,2.5,2.7
		c0.67,1.15,1.19,2.51,1.55,4.08c0.36,1.57,0.54,3.26,0.54,5.06c0,1.35-0.11,2.83-0.34,4.45c-0.23,1.62-0.55,3.25-0.98,4.89
		c-0.43,1.64-0.94,3.26-1.55,4.86C384.6,77.72,383.89,79.15,383.08,80.41z M373.91,63.61c0,1.3,0.11,2.72,0.34,4.25
		c0.22,1.53,0.58,3.01,1.08,4.45c0.49,1.44,1.12,2.78,1.89,4.01c0.76,1.24,1.71,2.21,2.83,2.93c0.81-1.57,1.49-3.18,2.06-4.82
		c0.56-1.64,1.03-3.23,1.42-4.76c0.38-1.53,0.65-2.96,0.81-4.28c0.16-1.33,0.24-2.48,0.24-3.47c0-1.35-0.11-2.58-0.34-3.71
		c-0.22-1.12-0.53-2.1-0.91-2.93c-0.38-0.83-0.85-1.48-1.42-1.96c-0.56-0.47-1.18-0.71-1.85-0.71c-0.9,0-1.73,0.3-2.5,0.91
		c-0.76,0.61-1.42,1.42-1.96,2.43s-0.96,2.18-1.25,3.51C374.05,60.79,373.91,62.17,373.91,63.61z"/>
	<path class="st0" d="M421.13,96.46c-2.34,1.58-4.76,2.84-7.25,3.81c-2.5,0.97-4.89,1.45-7.18,1.45c-1.71,0-3.42-0.25-5.13-0.74
		c-1.71-0.5-3.26-1.31-4.65-2.46c-1.39-1.15-2.53-2.66-3.41-4.55s-1.32-4.23-1.32-7.02c0-3.37,0.61-6.61,1.82-9.71
		c1.21-3.1,2.83-5.99,4.86-8.67c2.02-2.67,4.34-5.12,6.95-7.32c2.61-2.2,5.29-4.08,8.06-5.63c2.77-1.55,5.52-2.75,8.26-3.61
		c2.74-0.85,5.24-1.28,7.49-1.28c2.2,0,4.08,0.24,5.63,0.71c1.55,0.47,2.87,1.06,3.95,1.75c1.08,0.7,1.93,1.45,2.56,2.26
		s1.15,1.57,1.55,2.29l3.64-4.79l2.23,1.48c0,0.04-0.36,0.75-1.08,2.13c-0.72,1.37-1.66,3.2-2.83,5.5
		c-1.17,2.29-2.53,4.98-4.08,8.06c-1.55,3.08-3.17,6.35-4.86,9.81c-1.69,3.46-3.4,7.04-5.13,10.73c-1.73,3.69-3.38,7.31-4.96,10.86
		c4.09-2.34,7.69-4.59,10.79-6.75c3.1-2.16,5.88-4.34,8.33-6.54c2.45-2.2,4.67-4.5,6.64-6.88c1.98-2.38,3.89-4.97,5.73-7.76
		l2.5,1.89c-1.8,2.92-3.74,5.63-5.83,8.13c-2.09,2.5-4.54,4.97-7.35,7.42c-2.81,2.45-6.09,4.97-9.85,7.55
		c-3.76,2.59-8.22,5.43-13.39,8.53c-4.27,10.48-8.39,19.15-12.34,26c-3.96,6.86-7.7,12.29-11.23,16.29c-3.53,4-6.81,6.81-9.85,8.43
		c-3.04,1.62-5.77,2.43-8.2,2.43c-0.99,0-2.06-0.12-3.2-0.37c-1.15-0.25-2.21-0.73-3.2-1.45c-0.99-0.72-1.81-1.71-2.46-2.97
		c-0.65-1.26-0.98-2.88-0.98-4.86c0-3.78,1-7.51,3-11.2c2-3.69,4.9-7.35,8.7-11c3.8-3.64,8.46-7.26,13.96-10.86
		c5.51-3.6,11.75-7.22,18.72-10.86c0.85-1.93,1.64-3.77,2.36-5.5C419.82,99.49,420.5,97.9,421.13,96.46z M382.21,156.83
		c1.71,0,3.49-0.63,5.33-1.89c1.84-1.26,3.71-2.98,5.6-5.16c1.89-2.18,3.75-4.71,5.6-7.59c1.84-2.88,3.66-5.95,5.46-9.21
		c1.8-3.26,3.52-6.6,5.16-10.02c1.64-3.42,3.2-6.77,4.69-10.05c-6.7,3.51-12.42,7.16-17.17,10.96c-4.74,3.8-8.62,7.43-11.64,10.89
		c-3.01,3.46-5.21,6.59-6.58,9.38c-1.37,2.79-2.06,4.92-2.06,6.41c0,1.84,0.41,3.35,1.21,4.52
		C378.63,156.25,380.09,156.83,382.21,156.83z M424.63,89.04c1.21-2.29,2.42-4.55,3.61-6.78c1.19-2.23,2.43-4.45,3.71-6.68
		c1.28-2.23,2.65-4.51,4.12-6.85c1.46-2.34,3.09-4.77,4.89-7.29c-0.09-0.67-0.32-1.37-0.67-2.09c-0.36-0.72-0.86-1.38-1.48-1.99
		c-0.63-0.61-1.44-1.11-2.43-1.52c-0.99-0.4-2.16-0.61-3.51-0.61c-1.53,0-3.27,0.2-5.23,0.61c-1.96,0.41-4.01,1.1-6.17,2.09
		c-2.16,0.99-4.35,2.32-6.58,3.98c-2.23,1.66-4.4,3.76-6.51,6.27c-3.1,3.69-5.49,7.36-7.15,11.03c-1.66,3.67-2.5,7-2.5,10.02
		c0,2.92,0.74,5.14,2.23,6.64c1.48,1.51,3.51,2.26,6.07,2.26c2.7,0,5.57-0.83,8.6-2.5S421.67,91.79,424.63,89.04z"/>
	<path class="st0" d="M604.81,18.82c-3.82,4.59-7.21,9.39-10.15,14.4s-5.67,10.04-8.16,15.08c-2.5,5.04-4.87,10.02-7.12,14.94
		c-2.25,4.92-4.59,9.6-7.02,14.03c-2.43,4.43-5.03,8.52-7.79,12.28c-2.77,3.76-5.91,7-9.44,9.75c-3.53,2.74-7.56,4.89-12.08,6.44
		c-4.52,1.55-9.7,2.33-15.55,2.33c-5.17,0-9.75-0.66-13.73-1.99c-3.98-1.33-7.32-3.15-10.02-5.46c-2.7-2.32-4.75-5.04-6.14-8.16
		s-2.09-6.51-2.09-10.15c0-1.39,0.09-2.72,0.27-3.98c0.18-1.26,0.45-2.41,0.81-3.44l3.37,1.01c-0.27,0.9-0.5,1.9-0.67,3
		c-0.18,1.1-0.27,2.24-0.27,3.41c0,3.73,0.79,6.99,2.36,9.78c1.57,2.79,3.64,5.1,6.21,6.95c2.56,1.84,5.49,3.23,8.77,4.15
		c3.28,0.92,6.63,1.38,10.05,1.38c4.95,0,9.34-0.85,13.19-2.56c3.85-1.71,7.34-4.04,10.49-6.98c3.15-2.94,6.01-6.4,8.6-10.35
		c2.58-3.96,5.09-8.21,7.52-12.75c2.43-4.54,4.87-9.26,7.32-14.17c2.45-4.9,5.1-9.76,7.96-14.57c2.86-4.81,5.99-9.46,9.41-13.93
		c3.42-4.47,7.33-8.56,11.74-12.24L604.81,18.82z M652.16,2.97c-2.92,1.89-5.97,3.47-9.14,4.76c-3.17,1.28-6.44,2.31-9.81,3.07
		c-3.37,0.77-6.84,1.3-10.39,1.62c-3.55,0.32-7.15,0.47-10.79,0.47c-4.59,0-9.42-0.24-14.5-0.71c-5.08-0.47-10.13-0.98-15.14-1.52
		c-5.01-0.54-9.86-1.05-14.54-1.52c-4.68-0.47-8.9-0.71-12.68-0.71c-5.53,0-10.57,0.71-15.11,2.12s-8.43,3.42-11.67,6
		c-3.24,2.59-5.75,5.69-7.52,9.31c-1.78,3.62-2.67,7.66-2.67,12.11c0,3.1,0.53,5.9,1.58,8.4s2.56,4.6,4.52,6.31
		c1.96,1.71,4.31,3.02,7.05,3.95c2.74,0.92,5.78,1.38,9.11,1.38c2.88,0,5.85-0.35,8.9-1.05c3.06-0.7,6.07-1.74,9.04-3.14l1.42,2.77
		c-3.01,1.75-6.49,3.15-10.42,4.18c-3.94,1.04-7.9,1.55-11.91,1.55c-3.46,0-6.79-0.5-9.98-1.48c-3.19-0.99-6.04-2.48-8.53-4.49
		c-2.5-2-4.49-4.52-5.97-7.55c-1.48-3.04-2.23-6.6-2.23-10.69c0-4.05,0.61-7.68,1.82-10.89c1.21-3.21,2.88-6.07,4.99-8.57
		c2.11-2.5,4.59-4.62,7.42-6.37s5.88-3.2,9.14-4.35c3.26-1.15,6.64-1.98,10.15-2.5c3.51-0.52,6.99-0.78,10.46-0.78
		c4.14,0,8.58,0.25,13.32,0.74c4.74,0.5,9.59,1.02,14.54,1.58c4.95,0.56,9.92,1.09,14.91,1.59c4.99,0.5,9.83,0.74,14.5,0.74
		c3.51,0,6.97-0.15,10.39-0.44c3.42-0.29,6.73-0.8,9.95-1.52c3.21-0.72,6.32-1.67,9.31-2.87c2.99-1.19,5.86-2.69,8.6-4.49
		L652.16,2.97z"/>
	<path class="st0" d="M599.28,83.38c-0.09,0.54-0.16,1.08-0.2,1.62c-0.04,0.54-0.07,1.08-0.07,1.62c0,1.62,0.24,3.16,0.71,4.62
		c0.47,1.46,1.17,2.74,2.09,3.84c0.92,1.1,2.07,1.97,3.44,2.6c1.37,0.63,2.93,0.94,4.69,0.94c5.89,0,11.58-2,17.07-6
		c5.49-4,10.95-10.34,16.39-19.02l2.29,2.02c-2.97,4.95-5.98,9.12-9.04,12.51c-3.06,3.4-6.1,6.15-9.14,8.26
		c-3.04,2.11-6.02,3.64-8.94,4.59c-2.92,0.95-5.71,1.42-8.36,1.42c-1.93,0-3.98-0.27-6.14-0.81c-2.16-0.54-4.15-1.44-5.97-2.7
		s-3.33-2.94-4.52-5.06c-1.19-2.11-1.79-4.74-1.79-7.89c0-3.37,0.57-6.62,1.72-9.75c1.15-3.13,2.64-6.04,4.49-8.74
		s3.96-5.16,6.34-7.39c2.38-2.23,4.8-4.13,7.25-5.7c2.45-1.57,4.84-2.8,7.18-3.68c2.34-0.88,4.41-1.32,6.21-1.32
		c1.17,0,2.36,0.18,3.58,0.54c1.21,0.36,2.3,0.92,3.27,1.69s1.75,1.78,2.36,3.04c0.61,1.26,0.91,2.77,0.91,4.52
		c0,2.38-0.55,4.62-1.65,6.71c-1.1,2.09-2.58,4.03-4.42,5.8c-1.84,1.78-3.98,3.37-6.41,4.79c-2.43,1.42-4.97,2.62-7.62,3.61
		c-2.65,0.99-5.33,1.78-8.03,2.36C604.27,83.02,601.71,83.33,599.28,83.38z M599.82,80.48c3.01-0.31,5.85-0.94,8.5-1.89
		c2.65-0.94,5.08-2.1,7.29-3.47c2.2-1.37,4.17-2.87,5.9-4.49c1.73-1.62,3.18-3.26,4.35-4.92c1.17-1.66,2.07-3.26,2.7-4.79
		c0.63-1.53,0.94-2.9,0.94-4.12c0-1.21-0.33-2.18-0.98-2.9c-0.65-0.72-1.43-1.08-2.33-1.08c-1.98,0-4.21,0.71-6.68,2.13
		c-2.47,1.42-4.95,3.37-7.42,5.87c-2.47,2.5-4.8,5.43-6.98,8.8C602.93,72.99,601.17,76.61,599.82,80.48z"/>
	<path class="st0" d="M685.96,75.48c-0.67,0.99-1.47,2.33-2.39,4.01c-0.92,1.69-1.99,3.51-3.2,5.46s-2.55,3.95-4.01,5.97
		c-1.46,2.02-3.06,3.85-4.79,5.46c-1.73,1.62-3.61,2.95-5.63,3.98c-2.02,1.03-4.18,1.55-6.48,1.55c-1.26,0-2.45-0.19-3.58-0.57
		c-1.13-0.38-2.11-0.98-2.97-1.79c-0.86-0.81-1.53-1.81-2.02-3c-0.5-1.19-0.74-2.6-0.74-4.22c0-2.2,0.44-4.51,1.32-6.91
		c0.88-2.41,1.9-4.73,3.07-6.98c1.17-2.25,2.34-4.3,3.51-6.17c1.17-1.87,2.02-3.36,2.56-4.49s0.81-2.09,0.81-2.9
		c0-0.58-0.19-1.1-0.57-1.55c-0.38-0.45-0.85-0.89-1.42-1.32c-0.56-0.43-1.15-0.88-1.75-1.35c-0.61-0.47-1.11-1.04-1.52-1.72
		c-1.12,1.8-2.27,3.62-3.44,5.46c-1.04,1.57-2.16,3.34-3.37,5.29c-1.21,1.96-2.38,3.88-3.51,5.77l-2.43-1.89L657.83,51l1.96,1.01
		c-0.09,0.27-0.24,0.7-0.44,1.28c-0.2,0.58-0.3,1.21-0.3,1.89c0,0.5,0.08,0.98,0.24,1.45c0.16,0.47,0.48,0.91,0.98,1.32
		c1.8,1.62,3.21,2.87,4.25,3.74s1.79,1.58,2.26,2.09c0.47,0.52,0.76,0.94,0.88,1.28s0.17,0.78,0.17,1.32s-0.09,1.19-0.27,1.96
		c-0.18,0.77-0.48,1.69-0.91,2.77c-0.43,1.08-1.01,2.35-1.75,3.81c-0.74,1.46-1.68,3.16-2.8,5.09c-0.67,1.17-1.34,2.35-1.99,3.54
		c-0.65,1.19-1.24,2.39-1.75,3.61c-0.52,1.21-0.93,2.43-1.25,3.64c-0.32,1.21-0.47,2.38-0.47,3.51c0,0.85,0.12,1.54,0.37,2.06
		c0.25,0.52,0.57,0.91,0.98,1.18c0.41,0.27,0.84,0.45,1.32,0.54c0.47,0.09,0.93,0.13,1.38,0.13c1.48,0,2.96-0.44,4.42-1.32
		c1.46-0.88,2.9-2.01,4.32-3.41c1.42-1.39,2.79-2.98,4.12-4.76c1.33-1.78,2.6-3.58,3.81-5.43c1.21-1.84,2.34-3.61,3.37-5.3
		c1.03-1.69,1.96-3.16,2.77-4.42L685.96,75.48z"/>
	<path class="st0" d="M712.2,54.1c-1.75,3.19-3.58,6.69-5.46,10.49c-1.89,3.8-3.79,7.75-5.7,11.84c-1.91,4.09-3.82,8.25-5.73,12.48
		c-1.91,4.23-3.79,8.36-5.63,12.41c4.23-2.34,7.95-4.68,11.16-7.02c3.21-2.34,6.04-4.67,8.47-6.98c2.43-2.32,4.54-4.62,6.34-6.91
		c1.8-2.29,3.42-4.56,4.86-6.81l2.43,1.89c-2.02,3.06-4.19,5.95-6.51,8.67c-2.32,2.72-4.91,5.36-7.79,7.93
		c-2.88,2.56-6.1,5.1-9.68,7.62s-7.59,5.1-12.04,7.76c-1.62,3.55-3.17,6.89-4.65,10.02c-1.48,3.13-2.88,5.95-4.18,8.47
		c-2.25,4.27-4.72,8.27-7.42,12.01s-5.45,6.98-8.26,9.75c-2.81,2.77-5.59,4.95-8.33,6.54c-2.74,1.6-5.28,2.39-7.62,2.39
		c-0.94,0-1.86-0.16-2.73-0.47c-0.88-0.32-1.67-0.79-2.39-1.42c-0.72-0.63-1.29-1.45-1.72-2.46c-0.43-1.01-0.64-2.24-0.64-3.68
		c0-3.78,0.91-7.51,2.73-11.2c1.82-3.69,4.45-7.3,7.89-10.83s7.67-6.97,12.68-10.32c5.01-3.35,10.71-6.55,17.1-9.61
		c1.48-3.06,2.86-5.91,4.12-8.57c1.26-2.65,2.54-5.26,3.84-7.82c1.3-2.56,2.67-5.14,4.08-7.72c1.42-2.59,3.01-5.36,4.79-8.33
		c1.78-2.97,3.78-6.18,6-9.65c2.23-3.46,4.8-7.33,7.72-11.6L712.2,54.1z M646.63,153.06c2.34,0,4.64-0.94,6.91-2.83
		c2.27-1.89,4.59-4.56,6.95-8.03s4.81-7.61,7.35-12.45c2.54-4.83,5.25-10.2,8.13-16.09l-2.9,1.55c-4.68,2.52-8.89,5.32-12.65,8.4
		c-3.75,3.08-6.94,6.17-9.54,9.28c-2.61,3.1-4.61,6.07-6,8.9c-1.39,2.83-2.09,5.22-2.09,7.15c0,1.17,0.3,2.15,0.91,2.93
		C644.3,152.66,645.28,153.06,646.63,153.06z M721.58,42.43c-0.9,1.3-1.89,2.38-2.97,3.24c-1.08,0.85-2.09,1.28-3.04,1.28
		c-0.77,0-1.35-0.28-1.75-0.84c-0.41-0.56-0.61-1.22-0.61-1.99c0-0.72,0.16-1.57,0.47-2.56c0.31-0.99,0.75-1.93,1.31-2.83
		c0.56-0.9,1.23-1.66,1.99-2.29c0.76-0.63,1.57-0.94,2.43-0.94c0.99,0,1.81,0.36,2.46,1.08c0.65,0.72,0.98,1.48,0.98,2.29
		C722.86,39.98,722.43,41.17,721.58,42.43z"/>
	<path class="st0" d="M725.62,83.38c-0.09,0.54-0.16,1.08-0.2,1.62c-0.04,0.54-0.07,1.08-0.07,1.62c0,1.62,0.24,3.16,0.71,4.62
		c0.47,1.46,1.17,2.74,2.09,3.84c0.92,1.1,2.07,1.97,3.44,2.6c1.37,0.63,2.93,0.94,4.69,0.94c5.89,0,11.58-2,17.07-6
		c5.49-4,10.95-10.34,16.39-19.02l2.29,2.02c-2.97,4.95-5.98,9.12-9.04,12.51c-3.06,3.4-6.1,6.15-9.14,8.26
		c-3.04,2.11-6.02,3.64-8.94,4.59c-2.92,0.95-5.71,1.42-8.36,1.42c-1.93,0-3.98-0.27-6.14-0.81c-2.16-0.54-4.15-1.44-5.97-2.7
		s-3.33-2.94-4.52-5.06c-1.19-2.11-1.79-4.74-1.79-7.89c0-3.37,0.57-6.62,1.72-9.75c1.15-3.13,2.64-6.04,4.49-8.74
		s3.96-5.16,6.34-7.39c2.38-2.23,4.8-4.13,7.25-5.7c2.45-1.57,4.84-2.8,7.18-3.68c2.34-0.88,4.41-1.32,6.21-1.32
		c1.17,0,2.36,0.18,3.58,0.54c1.21,0.36,2.3,0.92,3.27,1.69s1.75,1.78,2.36,3.04c0.61,1.26,0.91,2.77,0.91,4.52
		c0,2.38-0.55,4.62-1.65,6.71c-1.1,2.09-2.58,4.03-4.42,5.8c-1.84,1.78-3.98,3.37-6.41,4.79c-2.43,1.42-4.97,2.62-7.62,3.61
		c-2.65,0.99-5.33,1.78-8.03,2.36C730.61,83.02,728.05,83.33,725.62,83.38z M726.16,80.48c3.01-0.31,5.85-0.94,8.5-1.89
		c2.65-0.94,5.08-2.1,7.29-3.47c2.2-1.37,4.17-2.87,5.9-4.49c1.73-1.62,3.18-3.26,4.35-4.92c1.17-1.66,2.07-3.26,2.7-4.79
		c0.63-1.53,0.94-2.9,0.94-4.12c0-1.21-0.33-2.18-0.98-2.9c-0.65-0.72-1.43-1.08-2.33-1.08c-1.98,0-4.21,0.71-6.68,2.13
		c-2.47,1.42-4.95,3.37-7.42,5.87c-2.47,2.5-4.8,5.43-6.98,8.8C729.28,72.99,727.51,76.61,726.16,80.48z"/>
</g>
</svg>
